SplineFontDB: 2.0
FontName: Rollout-BoldItalic
FullName: Rollout-BoldItalic
FamilyName: Rollout
Weight: Bold
Copyright: This typeface is copyright Ben Weiner 1998.
Version: 001.000
ItalicAngle: -11
UnderlinePosition: -133
UnderlineWidth: 20
Ascent: 800
Descent: 200
UniqueID: 4065015
OS2Version: 0
OS2_WeightWidthSlopeOnly: 0
OS2_UseTypoMetrics: 0
CreationTime: 1209324368
ModificationTime: 1209324368
OS2TypoAscent: 0
OS2TypoAOffset: 1
OS2TypoDescent: 0
OS2TypoDOffset: 1
OS2TypoLinegap: 0
OS2WinAscent: 0
OS2WinAOffset: 1
OS2WinDescent: 0
OS2WinDOffset: 1
HheadAscent: 0
HheadAOffset: 1
HheadDescent: 0
HheadDOffset: 1
OS2Vendor: 'PfEd'
DEI: 0
Encoding: Custom
UnicodeInterp: none
NameList: Adobe Glyph List
DisplaySize: -24
AntiAlias: 1
FitToEm: 1
WinInfo: 0 35 13
BeginPrivate: 9
BlueValues 47 [-18.006 2.400 507.294 509.187 695.192 707.186]
OtherBlues 19 [-215.350 -190.242]
BlueScale 11 0.318620039
StdHW 8 [73.178]
StdVW 9 [130.371]
StemSnapH 16 [73.178 219.126]
StemSnapV 17 [130.371 138.390]
ForceBoldThreshold 2 .5
ForceBold 4 true
EndPrivate
BeginChars: 257 233
StartChar: Eth
Encoding: 1 208 0
Width: 528
Flags: MW
HStem: -2 63<124 233> 370 88G<24 51 5 70 208 232> 628 73G<348 364.5>
VStem: 397 132G
Fore
51 370 m 1
 5 370 l 1
 24 458 l 1
 70 458 l 1
 121 698 l 1
 250 697 l 1
 251 698 301 701 301 701 c 1
 381 701 l 2
 481 701 546 627 525 527 c 2
 449 172 l 2
 428 72 332 -1 233 -2 c 2
 151 -3 l 2
 132 -3 112 -5 96 1 c 1
 -27 1 l 1
 51 370 l 1
232 370 m 1
 189 370 l 1
 124 61 l 1
 230 61 l 2
 263 60 292 81 299 116 c 2
 395 565 l 2
 402 600 381 628 348 628 c 2
 243 627 l 1
 208 458 l 1
 251 458 l 1
 232 370 l 1
EndSplineSet
EndChar
StartChar: eth
Encoding: 2 240 1
Width: 491
Flags: W
Fore
181 69 m 0
 148 69 126 88 133 123 c 2
 185 365 l 2
 192 400 225 428 258 428 c 0
 283 428 303 412 307 388 c 1
 247 108 l 1
 235 83 209 69 181 69 c 0
283 507 m 2
 250 507 l 2
 150 507 52 425 31 326 c 2
 -2 170 l 2
 -23 70 42 -1 142 -1 c 2
 184 -1 l 2
 210 -1 227 12 252 22 c 1
 253 1 l 1
 365 1 l 1
 513 696 l 1
 372 696 l 1
 327 482 l 1
 318 491 300 507 283 507 c 2
EndSplineSet
EndChar
StartChar: Lslash
Encoding: 3 321 2
Width: 443
Flags: MW
HStem: 1 88<129 307> 677 20G<120 120>
Fore
24 458 m 1
 72 471 l 1
 120 697 l 1
 258 696 l 1
 218 507 l 1
 379 552 l 1
 360 463 l 1
 199 419 l 1
 129 89 l 1
 325 89 l 1
 307 1 l 1
 -28 1 l 1
 53 383 l 1
 5 370 l 1
 24 458 l 1
EndSplineSet
EndChar
StartChar: lslash
Encoding: 4 322 3
Width: 228
Flags: MW
HStem: 1 20 677 20G<119 257 257 257>
Fore
251 460 m 1
 202 440 l 1
 108 1 l 1
 -29 1 l 1
 54 389 l 1
 5 370 l 1
 24 458 l 1
 72 477 l 1
 119 697 l 1
 257 697 l 1
 221 528 l 1
 270 548 l 1
 251 460 l 1
EndSplineSet
EndChar
StartChar: Scaron
Encoding: 5 352 4
Width: 528
Flags: W
Fore
448 163 m 0
 427 63 328 -19 229 -18 c 2
 148 -18 l 2
 49 -17 -14 63 7 163 c 2
 21 227 l 1
 159 227 l 1
 133 107 l 2
 126 72 146 51 179 52 c 2
 227 52 l 2
 260 52 292 72 298 107 c 0
 306 145 314 175 319 199 c 0
 331 261 253 278 180 306 c 0
 112 331 55 395 72 473 c 0
 77 497 75 487 84 526 c 0
 105 626 204 707 303 707 c 2
 384 707 l 2
 483 707 547 627 525 527 c 2
 517 488 l 1
 380 488 l 1
 396 565 l 2
 403 600 382 627 349 628 c 2
 304 628 l 2
 271 628 238 600 231 565 c 0
 227 547 228 554 223 528 c 0
 206 448 222 448 342 414 c 0
 415 393 486 342 460 219 c 0
 456 201 452 182 448 163 c 0
319 722 m 1
 379 722 l 1
 457 833 l 1
 397 833 l 1
 362 783 l 1
 349 833 l 1
 289 833 l 1
 319 722 l 1
EndSplineSet
EndChar
StartChar: scaron
Encoding: 6 353 5
Width: 475
Flags: W
Fore
272 116 m 0
 264 81 234 62 201 62 c 0
 168 62 145 81 153 116 c 2
 167 181 l 1
 23 181 l 1
 17 163 l 2
 -4 63 62 -8 161 -8 c 2
 203 -8 l 2
 303 -8 393 34 418 154 c 0
 455 329 177 270 200 376 c 0
 207 411 240 439 273 439 c 0
 306 439 327 411 319 376 c 2
 306 314 l 1
 440 314 l 1
 445 329 l 2
 467 429 412 509 313 509 c 2
 271 509 l 2
 156 509 83 451 60 347 c 0
 27 200 237 211 274 169 c 0
 282 160 275 131 272 116 c 0
256 551 m 1
 316 551 l 1
 393 662 l 1
 334 662 l 1
 299 612 l 1
 285 662 l 1
 226 662 l 1
 256 551 l 1
EndSplineSet
EndChar
StartChar: Yacute
Encoding: 7 221 6
Width: 493
Flags: W
Fore
76 697 m 1
 214 697 l 1
 265 482 l 1
 262 461 l 1
 278 461 l 1
 284 480 l 1
 428 697 l 1
 556 697 l 1
 306 326 l 1
 237 1 l 1
 99 1 l 1
 169 326 l 1
 76 697 l 1
412 846 m 1
 336 864 l 1
 233 737 l 1
 310 719 l 1
 412 846 l 1
EndSplineSet
EndChar
StartChar: yacute
Encoding: 8 253 7
Width: 410
Flags: W
Fore
81 509 m 1
 226 509 l 1
 217 196 l 1
 215 186 l 1
 221 186 l 1
 223 196 l 1
 344 509 l 1
 482 509 l 1
 242 1 l 2
 195 -100 182 -142 148 -180 c 1
 84 -215 57 -206 -30 -203 c 1
 -5 -87 l 1
 69 -87 l 2
 81 -87 95 -82 104 -76 c 1
 112 -65 116 -56 116 -36 c 2
 116 1 l 1
 81 509 l 1
377 679 m 1
 301 697 l 1
 198 570 l 1
 274 552 l 1
 377 679 l 1
EndSplineSet
EndChar
StartChar: Thorn
Encoding: 11 222 8
Width: 484
Flags: MW
HStem: 1 20 199 70<183.5 235.5 205 229> 628 79G<304 311.5>
VStem: 343 140G
Fore
219 269 m 0
 252 269 282 288 290 323 c 2
 341 565 l 2
 349 600 328 628 295 628 c 0
 270 628 239 612 226 588 c 1
 166 308 l 1
 167 283 191 269 219 269 c 0
304 707 m 2
 337 707 l 2
 436 707 499 625 478 526 c 2
 445 370 l 2
 424 270 328 199 229 199 c 2
 197 199 l 2
 170 199 169 212 148 222 c 1
 101 1 l 1
 -36 1 l 1
 126 766 l 1
 264 766 l 1
 246 682 l 1
 257 693 287 707 304 707 c 2
EndSplineSet
EndChar
StartChar: thorn
Encoding: 12 254 9
Width: 484
Flags: MW
HStem: -1 70<149 210.5 180 204> 428 79G<279 287.5>
VStem: 318 140G
Fore
194 69 m 0
 227 69 258 88 265 123 c 2
 317 365 l 2
 324 400 304 428 271 428 c 0
 245 428 217 412 204 388 c 1
 144 108 l 1
 145 83 166 69 194 69 c 0
279 507 m 2
 312 507 l 2
 412 507 475 425 454 326 c 2
 421 170 l 2
 400 70 304 -1 204 -1 c 2
 162 -1 l 2
 136 -1 125 12 104 22 c 1
 73 -99 l 1
 -39 -99 l 1
 129 696 l 1
 269 696 l 1
 224 482 l 1
 235 493 262 507 279 507 c 2
EndSplineSet
EndChar
StartChar: Zcaron
Encoding: 14 381 10
Width: 430
Flags: W
Fore
150 91 m 1
 326 91 l 1
 307 1 l 1
 -28 1 l 1
 -9 91 l 1
 285 626 l 1
 105 626 l 1
 120 696 l 1
 455 696 l 1
 440 625 l 1
 150 91 l 1
292 722 m 1
 352 722 l 1
 430 833 l 1
 370 833 l 1
 335 783 l 1
 322 833 l 1
 262 833 l 1
 292 722 l 1
EndSplineSet
EndChar
StartChar: zcaron
Encoding: 15 382 11
Width: 472
Flags: W
Fore
490 509 m 1
 90 509 l 1
 73 429 l 1
 318 429 l 1
 3 99 l 1
 -18 0 l 1
 381 0 l 1
 402 99 l 1
 169 99 l 1
 473 429 l 1
 490 509 l 1
256 551 m 1
 316 551 l 1
 393 662 l 1
 334 662 l 1
 299 612 l 1
 285 662 l 1
 226 662 l 1
 256 551 l 1
EndSplineSet
EndChar
StartChar: brokenbar
Encoding: 27 166 12
Width: 250
Flags: MW
HStem: 510 286G<153 229 92 290>
Fore
-55 -179 m 1
 83 -179 l 1
 211 426 l 1
 74 426 l 1
 -55 -179 l 1
153 796 m 1
 290 796 l 1
 229 510 l 1
 92 510 l 1
 153 796 l 1
EndSplineSet
EndChar
StartChar: minus
Encoding: 28 8722 13
Width: 500
Flags: MW
HStem: 361 70G<97 426 83 441>
Fore
97 431 m 1
 441 431 l 1
 426 361 l 1
 83 361 l 1
 97 431 l 1
EndSplineSet
EndChar
StartChar: multiply
Encoding: 29 215 14
Width: 500
Flags: W
Fore
177 542 m 1
 252 446 l 1
 369 542 l 1
 408 492 l 1
 291 396 l 1
 367 300 l 1
 307 250 l 1
 231 346 l 1
 115 250 l 1
 76 300 l 1
 192 396 l 1
 116 492 l 1
 177 542 l 1
EndSplineSet
EndChar
StartChar: exclam
Encoding: 33 33 16
Width: 250
Flags: MW
HStem: -6 145<11 149 47 118> 677 20G<146 283 283 283>
Fore
146 697 m 1
 283 697 l 1
 173 181 l 1
 36 181 l 1
 146 697 l 1
47 139 m 2
 149 139 l 2
 159 139 165 131 163 121 c 2
 140 12 l 2
 138 2 128 -6 118 -6 c 2
 16 -6 l 2
 6 -6 0 2 2 12 c 2
 25 121 l 2
 27 131 37 139 47 139 c 2
EndSplineSet
EndChar
StartChar: quotedbl
Encoding: 34 34 17
Width: 391
Flags: MW
HStem: 548 220
Fore
118 751 m 2
 120 761 129 769 139 769 c 2
 241 769 l 2
 251 769 257 761 255 751 c 0
 228 622 232 643 232 642 c 1
 171 548 l 1
 107 548 l 1
 94 642 l 1
 118 751 l 2
280 751 m 2
 282 761 291 769 301 769 c 2
 403 769 l 2
 413 769 419 761 417 751 c 0
 390 622 394 643 394 642 c 1
 333 548 l 1
 269 548 l 1
 256 642 l 1
 280 751 l 2
EndSplineSet
EndChar
StartChar: numbersign
Encoding: 35 35 18
Width: 500
Flags: MW
HStem: 488 54 611 54G<126 174 114 186 126 230 242 300 368 417>
Fore
330 488 m 1
 316 421 l 1
 260 421 l 1
 274 488 l 1
 204 488 l 1
 190 421 l 1
 134 421 l 1
 148 488 l 1
 88 488 l 1
 100 543 l 1
 160 543 l 1
 174 611 l 1
 114 611 l 1
 126 665 l 1
 186 665 l 1
 198 724 l 1
 254 724 l 1
 242 665 l 1
 312 665 l 1
 324 724 l 1
 380 724 l 1
 368 665 l 1
 428 665 l 1
 417 611 l 1
 356 611 l 1
 342 543 l 1
 402 543 l 1
 391 488 l 1
 330 488 l 1
300 611 m 1
 230 611 l 1
 216 543 l 1
 286 543 l 1
 300 611 l 1
EndSplineSet
EndChar
StartChar: dollar
Encoding: 36 36 19
Width: 500
Flags: MW
HStem: -88 316 488 218G<385 385 385 502 374 385>
Fore
264 614 m 1
 240 605 206 571 200 544 c 0
 197 526 198 533 192 507 c 0
 182 459 199 461 229 446 c 1
 264 614 l 1
250 71 m 1
 274 83 296 87 302 120 c 0
 309 158 311 175 316 199 c 0
 321 221 301 238 288 252 c 1
 250 71 l 1
445 219 m 0
 441 201 437 182 433 163 c 0
 413 69 324 -9 231 -17 c 1
 216 -88 l 1
 115 -88 l 1
 130 -18 l 1
 32 -16 -29 64 -8 163 c 2
 6 227 l 1
 134 227 l 1
 108 107 l 2
 102 79 126 70 147 64 c 1
 198 303 l 1
 188 307 177 311 166 315 c 0
 99 340 40 395 57 473 c 0
 62 497 60 487 68 526 c 0
 90 625 186 705 284 707 c 1
 302 789 l 1
 402 789 l 1
 385 706 l 1
 475 698 531 621 510 527 c 2
 502 488 l 1
 374 488 l 1
 390 565 l 2
 395 586 377 595 363 606 c 1
 323 415 l 1
 327 414 l 2
 400 393 471 342 445 219 c 0
EndSplineSet
EndChar
StartChar: percent
Encoding: 37 37 20
Width: 500
Flags: W
Fore
528 733 m 1
 390 733 l 1
 -41 -26 l 1
 96 -26 l 1
 528 733 l 1
199 545 m 2
 195 527 180 518 164 518 c 0
 147 518 136 527 139 545 c 2
 161 648 l 2
 165 665 181 679 198 679 c 0
 214 679 225 665 221 648 c 2
 199 545 l 2
221 728 m 2
 200 728 l 2
 150 728 101 688 91 638 c 2
 75 564 l 2
 64 514 96 474 146 474 c 2
 167 474 l 2
 216 474 264 510 275 559 c 2
 291 637 l 2
 302 687 270 728 221 728 c 2
327 67 m 2
 323 49 307 40 291 40 c 0
 274 40 263 49 267 67 c 2
 285 152 l 2
 289 169 305 184 321 184 c 0
 338 184 348 169 345 152 c 2
 327 67 l 2
346 241 m 2
 325 241 l 2
 275 241 227 201 216 151 c 2
 200 77 l 2
 190 27 221 -13 271 -13 c 2
 292 -13 l 2
 342 -13 390 23 400 72 c 2
 417 150 l 2
 427 200 396 241 346 241 c 2
EndSplineSet
EndChar
StartChar: ampersand
Encoding: 38 38 21
Width: 500
Flags: MW
HStem: -8 87<131 213.5 131 213.5> 363 70G<230 241 213 256> 535 174G<342 342>
VStem: 79 119 350 117G
Fore
458 361 m 1
 433 361 l 1
 393 172 l 2
 371 72 284 -8 185 -8 c 2
 131 -8 l 2
 32 -9 -32 71 -11 172 c 2
 8 262 l 2
 21 321 60 373 111 406 c 1
 84 440 72 487 83 537 c 0
 104 637 201 708 300 708 c 2
 327 709 l 2
 427 709 483 634 462 534 c 1
 462 534 345 534 342 535 c 1
 348 566 l 2
 356 601 326 622 293 621 c 0
 260 621 224 601 217 566 c 2
 200 486 l 2
 193 455 204 438 230 433 c 1
 256 433 l 1
 241 363 l 1
 213 363 l 2
 188 360 161 332 154 300 c 2
 119 134 l 2
 111 99 123 78 158 78 c 2
 197 79 l 2
 230 79 258 99 266 134 c 2
 314 361 l 1
 273 361 l 1
 288 432 l 1
 355 432 406 433 473 432 c 1
 458 361 l 1
EndSplineSet
EndChar
StartChar: quotesingle
Encoding: 39 39 22
Width: 236
Flags: MW
HStem: 548 220
Fore
118 751 m 2
 120 761 129 769 139 769 c 2
 241 769 l 2
 251 769 257 761 255 751 c 0
 228 622 232 643 232 642 c 1
 171 548 l 1
 107 548 l 1
 94 642 l 1
 118 751 l 2
EndSplineSet
EndChar
StartChar: parenleft
Encoding: 40 40 23
Width: 252
Flags: W
Fore
-3 38 m 1
 -30 -102 41 -134 137 -134 c 1
 156 -46 l 1
 123 -46 94 -24 101 11 c 2
 224 589 l 2
 233 626 270 646 303 646 c 1
 322 735 l 1
 226 735 141 702 108 562 c 1
 108 562 l 1
 -4 38 l 1
 -3 38 l 1
EndSplineSet
EndChar
StartChar: parenright
Encoding: 41 41 24
Width: 252
Flags: MW
HStem: -134 88<-54 -37.5 -54 -24> 647 88G
Fore
142 38 m 1
 109 -102 24 -134 -72 -134 c 1
 -54 -46 l 1
 -21 -46 19 -24 26 11 c 2
 149 589 l 2
 156 626 127 646 94 646 c 1
 113 735 l 1
 208 735 280 702 253 562 c 1
 254 562 l 1
 142 38 l 1
 142 38 l 1
EndSplineSet
EndChar
StartChar: asterisk
Encoding: 42 42 25
Width: 250
Flags: MW
HStem: 467 218G<167 193 121 239>
Fore
86 490 m 1
 63 553 l 1
 117 576 l 1
 73 599 l 1
 122 662 l 1
 156 629 l 1
 167 685 l 1
 239 685 l 1
 228 629 l 1
 275 662 l 1
 298 599 l 1
 243 576 l 1
 288 553 l 1
 238 490 l 1
 205 523 l 1
 193 467 l 1
 121 467 l 1
 133 523 l 1
 86 490 l 1
EndSplineSet
EndChar
StartChar: plus
Encoding: 43 43 26
Width: 500
Flags: MW
HStem: 215 216<180 180 180 226 89 251>
Fore
180 215 m 1
 211 361 l 1
 75 361 l 1
 89 431 l 1
 226 431 l 1
 257 577 l 1
 327 577 l 1
 296 431 l 1
 433 431 l 1
 418 361 l 1
 282 361 l 1
 251 215 l 1
 180 215 l 1
EndSplineSet
EndChar
StartChar: comma
Encoding: 44 44 27
Width: 236
Flags: MW
HStem: -6 145G<4 141 39 47>
Fore
71 -82 m 1
 -2 -82 l 1
 47 -6 l 1
 9 -6 l 2
 -1 -6 -8 2 -6 12 c 2
 18 121 l 2
 20 131 29 139 39 139 c 2
 141 139 l 2
 151 139 157 131 155 121 c 0
 128 -8 132 13 132 12 c 1
 71 -82 l 1
EndSplineSet
EndChar
StartChar: hyphen
Encoding: 45 45 28
Width: 250
Flags: MW
HStem: 361 70G<64 213 50 228>
Fore
64 431 m 1
 228 431 l 1
 213 361 l 1
 50 361 l 1
 64 431 l 1
EndSplineSet
EndChar
StartChar: period
Encoding: 46 46 29
Width: 236
Flags: MW
HStem: -6 145G<-5 133 31 102>
Fore
31 139 m 2
 133 139 l 2
 143 139 149 131 147 121 c 2
 124 12 l 2
 122 2 112 -6 102 -6 c 2
 0 -6 l 2
 -10 -6 -16 2 -14 12 c 2
 9 121 l 2
 11 131 21 139 31 139 c 2
EndSplineSet
EndChar
StartChar: slash
Encoding: 47 47 30
Width: 270
Flags: W
Fore
351 751 m 1
 213 751 l 1
 -74 -53 l 1
 63 -53 l 1
 351 751 l 1
EndSplineSet
EndChar
StartChar: zero
Encoding: 48 48 31
Width: 500
Flags: MW
HStem: -8 78<100.5 205 184 204> 628 79G<286 356 302 324>
VStem: 10 130 368 128G
Fore
427 199 m 2
 406 99 303 -8 204 -8 c 2
 150 -8 l 2
 51 -8 -7 99 14 199 c 2
 78 500 l 2
 99 600 203 707 302 707 c 2
 356 707 l 2
 455 707 513 600 492 500 c 2
 427 199 l 2
282 152 m 2
 366 547 l 2
 374 582 356 628 324 628 c 2
 302 628 l 2
 270 628 233 582 226 547 c 2
 141 152 l 2
 134 117 151 70 184 70 c 2
 205 70 l 2
 238 70 275 117 282 152 c 2
EndSplineSet
EndChar
StartChar: one
Encoding: 49 49 32
Width: 500
Flags: MW
HStem: 1 20 506 70G<155 155 155 244 140 155> 677 20G<285 422 422 422>
Fore
422 697 m 1
 274 1 l 1
 137 1 l 1
 244 506 l 1
 140 506 l 1
 155 576 l 1
 232 577 272 634 285 697 c 1
 422 697 l 1
EndSplineSet
EndChar
StartChar: two
Encoding: 50 50 33
Width: 500
Flags: MW
HStem: 1 20 686 20G<256.5 306 306 350>
Fore
464 483 m 1
 485 530 l 1
 506 629 450 706 350 706 c 2
 306 706 l 2
 207 706 109 626 88 526 c 2
 80 488 l 1
 217 488 l 1
 233 564 l 2
 241 599 274 626 307 627 c 2
 316 627 l 2
 349 627 369 599 363 564 c 0
 357 530 350 510 335 483 c 1
 4 89 l 1
 -15 1 l 1
 358 1 l 1
 376 89 l 1
 141 89 l 1
 464 483 l 1
EndSplineSet
EndChar
StartChar: three
Encoding: 51 51 34
Width: 500
Flags: MW
HStem: -8 88 309 99G 488 219G<85 356>
VStem: 13 132 300 128G
Fore
254 308 m 2
 129 308 l 1
 150 408 l 1
 276 408 l 2
 309 407 341 436 349 471 c 2
 368 565 l 2
 375 600 354 628 321 628 c 2
 312 628 l 2
 279 627 246 600 238 565 c 2
 222 488 l 1
 85 488 l 1
 93 527 l 2
 114 627 212 707 311 707 c 2
 356 707 l 2
 455 707 509 627 488 527 c 0
 467 429 409 364 311 363 c 0
 310 363 310 361 309 361 c 1
 408 361 443 271 422 172 c 0
 401 72 303 -9 203 -8 c 2
 158 -8 l 2
 59 -7 -4 72 17 172 c 2
 31 236 l 1
 169 236 l 1
 147 134 l 2
 139 99 159 78 192 79 c 2
 205 79 l 2
 238 80 269 99 276 134 c 2
 298 236 l 2
 305 271 287 309 254 308 c 2
EndSplineSet
EndChar
StartChar: four
Encoding: 52 52 35
Width: 500
Flags: MW
HStem: 1 223<210 257 210 210> 677 20G<358 451 451 451>
Fore
257 224 m 1
 297 411 l 1
 168 224 l 1
 257 224 l 1
358 697 m 1
 451 697 l 1
 350 224 l 1
 445 224 l 1
 431 154 l 1
 335 154 l 1
 302 1 l 1
 210 1 l 1
 243 154 l 1
 16 154 l 1
 30 224 l 1
 358 697 l 1
EndSplineSet
EndChar
StartChar: five
Encoding: 53 53 36
Width: 500
Flags: MW
HStem: -8 86 363 87G<270 270> 624 74G
VStem: 6 132 317 132G
Fore
51 326 m 1
 130 698 l 1
 516 698 l 1
 500 625 l 1
 244 625 l 1
 202 425 l 1
 228 441 254 450 277 450 c 2
 304 449 l 2
 403 447 467 369 445 270 c 2
 424 172 l 2
 402 72 306 -6 206 -8 c 2
 152 -8 l 2
 52 -10 -11 72 10 172 c 2
 24 237 l 1
 162 237 l 1
 140 134 l 2
 132 99 155 80 188 79 c 2
 209 79 l 2
 242 77 270 99 278 134 c 2
 315 308 l 2
 323 343 303 364 270 363 c 2
 249 362 l 2
 215 361 181 344 176 326 c 1
 51 326 l 1
EndSplineSet
EndChar
StartChar: six
Encoding: 54 54 37
Width: 500
Flags: MW
HStem: -8 86 363 87G<269 276 264.5 285.5> 488 219G<352 357 357 406.5 303 490 352 352>
VStem: 5 132 370 132G
Fore
139 134 m 2
 131 99 154 80 187 79 c 2
 208 79 l 2
 241 78 270 99 277 134 c 2
 315 308 l 2
 322 343 302 363 269 363 c 2
 248 362 l 2
 215 362 184 343 176 308 c 2
 139 134 l 2
276 450 m 2
 303 449 l 2
 402 448 465 369 444 270 c 2
 423 172 l 2
 402 72 305 -7 205 -8 c 2
 151 -8 l 2
 51 -9 -12 72 9 172 c 2
 85 527 l 2
 106 627 204 707 303 707 c 2
 357 707 l 2
 456 707 519 627 498 527 c 2
 490 488 l 1
 352 488 l 1
 369 565 l 2
 376 600 355 627 322 628 c 2
 303 628 l 2
 271 628 238 600 230 565 c 2
 201 425 l 1
 227 441 253 450 276 450 c 2
EndSplineSet
EndChar
StartChar: seven
Encoding: 55 55 38
Width: 500
Flags: MW
HStem: 1 20 617 79G
Fore
130 1 m 1
 -8 1 l 1
 374 616 l 1
 122 616 l 1
 139 696 l 1
 529 696 l 1
 513 616 l 1
 130 1 l 1
EndSplineSet
EndChar
StartChar: eight
Encoding: 56 56 39
Width: 500
Flags: MW
HStem: -8 86 355 86G<275 290.5> 622 87G
VStem: 9 132 318 132G
Fore
427 172 m 2
 405 72 309 -6 209 -8 c 2
 155 -8 l 2
 55 -10 -8 72 13 172 c 2
 32 262 l 2
 45 320 84 373 135 406 c 1
 108 440 96 487 107 537 c 0
 128 637 224 708 324 708 c 2
 351 709 l 2
 450 709 515 633 494 534 c 0
 483 481 451 435 408 402 c 1
 442 369 458 319 446 262 c 2
 427 172 l 2
242 566 m 2
 226 496 l 2
 219 464 230 445 258 441 c 1
 294 441 l 2
 324 441 351 463 357 496 c 2
 372 566 l 2
 380 601 350 622 317 621 c 0
 284 621 250 601 242 566 c 2
281 134 m 2
 316 300 l 2
 323 333 306 355 275 355 c 2
 240 354 l 2
 207 353 185 335 178 300 c 2
 143 134 l 2
 135 99 149 80 182 79 c 2
 212 79 l 2
 245 78 274 99 281 134 c 2
EndSplineSet
EndChar
StartChar: nine
Encoding: 57 57 40
Width: 500
Flags: MW
HStem: -8 219 249 88<232 276.5> 619 88G
VStem: 6 132 371 132G
Fore
369 565 m 2
 377 600 354 619 321 620 c 2
 300 620 l 2
 267 621 238 600 231 565 c 2
 193 391 l 2
 186 356 206 335 239 336 c 2
 260 337 l 2
 293 337 324 356 332 391 c 2
 369 565 l 2
232 249 m 2
 205 250 l 2
 106 251 43 330 64 429 c 2
 85 527 l 2
 106 627 203 706 303 706 c 2
 357 707 l 2
 457 708 520 627 499 527 c 2
 423 172 l 2
 402 72 304 -8 205 -8 c 2
 151 -8 l 2
 52 -8 -11 72 10 172 c 2
 18 210 l 1
 155 210 l 1
 139 134 l 2
 132 99 153 72 186 71 c 2
 205 71 l 2
 237 71 270 99 278 134 c 2
 307 273 l 1
 281 258 255 249 232 249 c 2
EndSplineSet
EndChar
StartChar: colon
Encoding: 58 58 41
Width: 236
Flags: MW
HStem: -6 145<7 145 43 114> 354 145G<84 221 119 190>
Fore
43 139 m 2
 145 139 l 2
 154 139 161 131 159 121 c 2
 136 12 l 2
 133 2 124 -6 114 -6 c 2
 12 -6 l 2
 2 -6 -4 2 -2 12 c 2
 21 121 l 2
 23 131 33 139 43 139 c 2
119 499 m 2
 221 499 l 2
 231 499 237 491 235 481 c 2
 212 372 l 2
 210 362 200 354 190 354 c 2
 89 354 l 2
 79 354 72 362 74 372 c 2
 98 481 l 2
 100 491 109 499 119 499 c 2
EndSplineSet
EndChar
StartChar: semicolon
Encoding: 59 59 42
Width: 236
Flags: MW
HStem: -6 145<-35 103 1 9> 354 145G<42 179 77 148>
Fore
77 499 m 2
 179 499 l 2
 189 499 195 491 193 481 c 2
 170 372 l 2
 168 362 158 354 148 354 c 2
 47 354 l 2
 37 354 30 362 32 372 c 2
 56 481 l 2
 58 491 67 499 77 499 c 2
32 -82 m 1
 -41 -82 l 1
 9 -6 l 1
 -30 -6 l 2
 -40 -6 -46 2 -44 12 c 2
 -21 121 l 2
 -19 131 -9 139 1 139 c 2
 103 139 l 2
 113 139 119 131 117 121 c 0
 90 -7 94 13 94 12 c 1
 32 -82 l 1
EndSplineSet
EndChar
StartChar: less
Encoding: 60 60 43
Width: 450
Flags: W
Fore
38 405 m 1
 289 614 l 1
 427 614 l 1
 176 405 l 1
 334 178 l 1
 197 178 l 1
 38 405 l 1
EndSplineSet
EndChar
StartChar: equal
Encoding: 61 61 44
Width: 450
Flags: MW
HStem: 217 70<38 367 23 382> 361 70G<69 398 54 412>
Fore
69 431 m 1
 412 431 l 1
 398 361 l 1
 54 361 l 1
 69 431 l 1
38 287 m 1
 382 287 l 1
 367 217 l 1
 23 217 l 1
 38 287 l 1
EndSplineSet
EndChar
StartChar: greater
Encoding: 62 62 45
Width: 450
Flags: W
Fore
383 405 m 1
 220 614 l 1
 82 614 l 1
 245 405 l 1
 -10 178 l 1
 127 178 l 1
 383 405 l 1
EndSplineSet
EndChar
StartChar: question
Encoding: 63 63 46
Width: 450
Flags: MW
HStem: -6 145<84 221 120 191> 195 184<154 221 154 252 115 221> 488 219G<65 336>
VStem: 349 124G
Fore
276 308 m 1
 252 195 l 1
 115 195 l 1
 154 379 l 1
 221 379 l 1
 250 381 l 2
 284 383 316 409 323 444 c 2
 348 565 l 2
 355 600 335 630 302 628 c 2
 292 628 l 2
 259 626 226 600 218 565 c 2
 202 488 l 1
 65 488 l 1
 73 527 l 2
 94 627 192 707 291 707 c 2
 336 707 l 2
 435 707 490 627 468 527 c 2
 457 473 l 2
 436 374 376 308 276 308 c 1
120 139 m 2
 221 139 l 2
 231 139 238 131 236 121 c 2
 212 12 l 2
 210 2 201 -6 191 -6 c 2
 89 -6 l 2
 79 -6 73 2 75 12 c 2
 98 121 l 2
 100 131 110 139 120 139 c 2
EndSplineSet
EndChar
StartChar: at
Encoding: 64 64 47
Width: 498
Flags: MW
HStem: 1 70<122.5 214.5 187.5 214> 142 41<181.5 225 197 225> 326 30G<240.5 251> 430 79G<280 297.5>
VStem: 26 92 145 158 374 94G
Fore
214 1 m 2
 172 1 l 2
 73 1 9 81 30 181 c 2
 62 329 l 2
 83 429 181 509 280 509 c 2
 322 509 l 2
 422 509 485 427 464 328 c 2
 440 216 l 2
 432 178 382 121 326 121 c 0
 279 121 246 128 251 170 c 1
 240 154 228 142 206 142 c 0
 205 142 198 142 197 142 c 0
 166 142 137 165 147 213 c 2
 164 292 l 2
 173 335 198 356 248 356 c 0
 264 356 269 353 280 347 c 1
 284 352 l 1
 339 352 l 1
 319 256 l 2
 304 183 296 166 313 166 c 0
 332 166 329 172 334 188 c 2
 372 367 l 2
 387 443 314 430 281 430 c 0
 248 430 187 441 172 367 c 2
 120 125 l 2
 107 65 171 71 204 71 c 0
 225 71 279 67 287 102 c 1
 401 103 l 1
 387 32 279 0 214 1 c 2
201 213 m 0
 197 195 203 183 219 183 c 0
 231 183 249 204 253 222 c 2
 274 320 l 1
 265 326 258 327 251 326 c 1
 230 326 221 308 217 288 c 0
 217 287 204 230 201 213 c 0
EndSplineSet
EndChar
StartChar: A
Encoding: 65 65 48
Width: 488
Flags: MW
HStem: 1 20 153 70<150 264 150 266 118 264> 471 224G<249 270 249 249>
VStem: 270 138G
Fore
384 695 m 1
 409 1 l 1
 271 1 l 1
 266 153 l 1
 118 153 l 1
 48 1 l 1
 -72 1 l 1
 247 695 l 1
 384 695 l 1
150 223 m 1
 264 223 l 1
 265 433 l 1
 270 471 l 1
 249 471 l 1
 237 432 l 1
 150 223 l 1
EndSplineSet
EndChar
StartChar: B
Encoding: 66 66 49
Width: 481
Flags: MW
HStem: 1 70<98 184 184 194> 352 70G<173 252 252 265 158 252> 618 79G<215 294 215 215>
VStem: 298 137G
Fore
430 263 m 2
 411 172 l 2
 390 72 294 1 194 1 c 2
 -55 1 l 1
 93 697 l 1
 337 697 l 2
 436 697 503 626 482 526 c 2
 478 506 l 2
 467 457 445 432 407 406 c 0
 406 405 390 396 389 395 c 1
 389 394 387 392 388 392 c 1
 389 391 401 381 402 381 c 1
 431 353 442 319 430 263 c 2
326 475 m 2
 343 555 l 2
 350 590 327 618 294 618 c 2
 215 618 l 1
 173 422 l 1
 252 422 l 2
 285 422 319 441 326 475 c 2
294 302 m 2
 302 337 297 352 265 352 c 2
 158 352 l 1
 98 71 l 1
 184 71 l 2
 217 71 249 90 256 125 c 2
 294 302 l 2
EndSplineSet
EndChar
StartChar: C
Encoding: 67 67 50
Width: 528
Flags: MW
HStem: -8 87<186 231 150 234> 488 219G<378 378 378 383 383 432.5 302 516>
VStem: 4 132 396 132G
Fore
378 488 m 1
 395 565 l 2
 402 600 381 627 348 628 c 2
 302 628 l 2
 269 628 237 600 229 565 c 2
 138 134 l 2
 130 99 153 79 186 79 c 2
 234 79 l 2
 267 78 296 99 303 134 c 2
 325 236 l 1
 462 236 l 1
 449 172 l 2
 428 72 331 -8 231 -8 c 2
 150 -8 l 2
 50 -9 -13 72 8 172 c 2
 84 527 l 2
 105 627 203 707 302 707 c 2
 383 707 l 2
 482 707 545 627 524 527 c 2
 516 488 l 1
 378 488 l 1
EndSplineSet
EndChar
StartChar: D
Encoding: 68 68 51
Width: 528
Flags: MW
HStem: -2 63 627 70G<244 348 244 244>
VStem: 397 132G
Fore
449 172 m 2
 428 72 333 -1 233 -2 c 0
 145 -3 61 1 -27 1 c 1
 121 697 l 1
 381 697 l 2
 480 697 546 627 525 527 c 2
 449 172 l 2
300 116 m 2
 395 565 l 2
 403 600 381 627 348 627 c 2
 244 627 l 1
 124 61 l 1
 231 61 l 2
 264 60 292 81 300 116 c 2
EndSplineSet
EndChar
StartChar: E
Encoding: 69 69 52
Width: 443
Flags: MW
HStem: 1 88<129 307> 361 70G<202 381 187 396> 626 71G<243 440 243 243>
Fore
440 626 m 1
 243 626 l 1
 202 431 l 1
 396 431 l 1
 381 361 l 1
 187 361 l 1
 129 89 l 1
 325 89 l 1
 307 1 l 1
 -28 1 l 1
 120 697 l 1
 456 697 l 1
 440 626 l 1
EndSplineSet
EndChar
StartChar: F
Encoding: 70 70 53
Width: 443
Flags: MW
HStem: 1 20 361 70G<202 381 187 396> 626 71G<243 440 243 243>
Fore
440 626 m 1
 243 626 l 1
 202 431 l 1
 396 431 l 1
 381 361 l 1
 187 361 l 1
 110 1 l 1
 -28 1 l 1
 120 697 l 1
 456 697 l 1
 440 626 l 1
EndSplineSet
EndChar
StartChar: G
Encoding: 71 71 54
Width: 528
Flags: MW
HStem: -8 87<186 231 150 234> 360 71G 488 219G<378 383 383 432.5 302 516 378 378>
VStem: 4 132 396 132G
Fore
448 172 m 2
 427 72 331 -8 231 -8 c 2
 150 -8 l 2
 50 -9 -13 72 8 172 c 2
 84 527 l 2
 105 627 203 707 302 707 c 2
 383 707 l 2
 482 707 546 627 524 527 c 2
 516 488 l 1
 378 488 l 1
 395 565 l 2
 402 600 381 627 348 628 c 2
 302 628 l 2
 269 628 237 600 229 565 c 2
 138 134 l 2
 130 99 153 79 186 79 c 2
 234 79 l 2
 267 78 295 99 303 134 c 2
 351 359 l 1
 255 359 l 1
 270 431 l 1
 504 431 l 1
 448 172 l 2
EndSplineSet
EndChar
StartChar: H
Encoding: 72 72 55
Width: 514
Flags: MW
HStem: 1 20 361 70G<202 328 187 343> 677 20G<121 258 258 258 400 537 537 537>
Fore
202 431 m 1
 343 431 l 1
 400 697 l 1
 537 697 l 1
 389 1 l 1
 252 1 l 1
 328 361 l 1
 187 361 l 1
 110 1 l 1
 -27 1 l 1
 121 697 l 1
 258 697 l 1
 202 431 l 1
EndSplineSet
EndChar
StartChar: I
Encoding: 73 73 56
Width: 258
Flags: MW
HStem: 1 20 686 20G<140 277 277 277>
Fore
140 706 m 1
 277 706 l 1
 127 1 l 1
 -10 1 l 1
 140 706 l 1
EndSplineSet
EndChar
StartChar: J
Encoding: 74 74 57
Width: 528
Flags: MW
HStem: -8 20 678 20G<425 562 425 425>
Fore
9 172 m 2
 -12 72 52 -8 152 -8 c 2
 233 -8 l 2
 332 -8 429 72 450 172 c 2
 562 698 l 1
 425 698 l 1
 305 134 l 2
 297 100 269 79 236 79 c 2
 188 79 l 2
 155 79 132 99 139 134 c 2
 163 247 l 1
 25 247 l 1
 9 172 l 2
EndSplineSet
EndChar
StartChar: K
Encoding: 75 75 58
Width: 478
Flags: MW
HStem: 1 20 677 20G<121 258 258 258 373 510 510 510>
Fore
373 697 m 1
 510 697 l 1
 291 375 l 1
 389 1 l 1
 252 1 l 1
 181 301 l 1
 181 315 l 1
 177 315 l 1
 110 1 l 1
 -27 1 l 1
 121 697 l 1
 258 697 l 1
 203 437 l 1
 206 436 l 1
 213 452 l 1
 373 697 l 1
EndSplineSet
EndChar
StartChar: L
Encoding: 76 76 59
Width: 443
Flags: MW
HStem: 1 88<129 307> 676 20G<120 258 258 258>
Fore
129 89 m 1
 326 89 l 1
 307 1 l 1
 -28 1 l 1
 120 696 l 1
 258 696 l 1
 129 89 l 1
EndSplineSet
EndChar
StartChar: M
Encoding: 77 77 60
Width: 641
Flags: MW
HStem: -1 20 677 20G<121 246 246 246 554 661 661 661>
Fore
172 373 m 1
 92 1 l 1
 -27 1 l 1
 121 697 l 1
 246 697 l 1
 312 344 l 1
 315 333 l 1
 327 333 l 1
 338 344 l 1
 554 697 l 1
 661 697 l 1
 513 1 l 1
 384 1 l 1
 462 364 l 1
 458 364 l 1
 456 354 l 1
 254 13 l 1
 246 -1 l 1
 239 -1 l 1
 237 13 l 1
 180 355 l 1
 182 364 l 1
 172 373 l 1
EndSplineSet
EndChar
StartChar: N
Encoding: 78 78 61
Width: 493
Flags: MW
HStem: 1 20 686 20G<122 247 247 247 401 529 529 529>
Fore
170 373 m 1
 91 1 l 1
 -28 1 l 1
 122 706 l 1
 247 706 l 1
 319 347 l 1
 318 333 l 1
 321 333 l 1
 401 706 l 1
 529 706 l 1
 379 1 l 1
 251 1 l 1
 180 352 l 1
 184 373 l 1
 170 373 l 1
EndSplineSet
EndChar
StartChar: O
Encoding: 79 79 62
Width: 528
Flags: MW
HStem: -8 20 687 20G<252.5 302 302 383>
Fore
303 134 m 2
 296 99 267 79 234 79 c 2
 186 79 l 2
 153 79 130 99 138 134 c 2
 229 565 l 2
 237 600 269 628 302 628 c 2
 348 628 l 2
 381 628 402 600 395 565 c 2
 303 134 l 2
449 172 m 2
 524 527 l 2
 545 627 482 707 383 707 c 2
 302 707 l 2
 203 707 105 627 84 527 c 2
 8 172 l 2
 -13 72 51 -8 150 -8 c 2
 231 -8 l 2
 331 -8 428 72 449 172 c 2
EndSplineSet
EndChar
StartChar: P
Encoding: 80 80 63
Width: 481
Flags: MW
HStem: 1 20 351 71G<263 268.5 173 313> 618 79G<215 294 215 215>
VStem: 344 140G
Fore
478 506 m 2
 457 407 363 351 263 351 c 2
 158 352 l 1
 84 1 l 1
 -55 1 l 1
 93 697 l 1
 337 697 l 2
 436 697 501 616 480 516 c 2
 478 506 l 2
326 475 m 2
 343 556 l 2
 350 591 327 618 294 618 c 2
 215 618 l 1
 173 422 l 1
 252 422 l 2
 285 422 318 441 326 475 c 2
EndSplineSet
EndChar
StartChar: Q
Encoding: 81 81 64
Width: 528
Flags: MW
HStem: -158 218 627 80G
VStem: 20 128 412 132G
Fore
315 116 m 2
 411 565 l 2
 418 600 397 628 364 628 c 2
 318 628 l 2
 285 628 253 600 245 565 c 2
 150 116 l 2
 142 81 165 61 198 61 c 2
 246 61 l 2
 279 61 308 81 315 116 c 2
139 -6 m 1
 55 7 5 82 24 172 c 2
 100 527 l 2
 121 627 218 707 318 707 c 2
 398 707 l 2
 498 707 561 627 540 527 c 2
 465 172 l 2
 446 82 365 8 277 -5 c 1
 274 -20 l 2
 267 -51 276 -77 297 -77 c 2
 354 -77 l 1
 337 -158 l 1
 207 -158 l 2
 173 -158 113 -129 129 -53 c 2
 139 -6 l 1
EndSplineSet
EndChar
StartChar: R
Encoding: 82 82 65
Width: 481
Flags: MW
HStem: 1 20 618 79G<215 294 215 215>
VStem: 344 139G
Fore
297 356 m 1
 424 1 l 1
 268 1 l 1
 177 351 l 1
 158 351 l 1
 84 1 l 1
 -55 1 l 1
 93 697 l 1
 337 697 l 2
 436 697 498 616 480 516 c 2
 478 506 l 2
 464 434 408 384 341 363 c 0
 329 359 304 355 297 356 c 1
326 475 m 2
 343 556 l 2
 350 591 327 618 294 618 c 2
 215 618 l 1
 173 422 l 1
 252 422 l 2
 285 422 319 441 326 475 c 2
EndSplineSet
EndChar
StartChar: S
Encoding: 83 83 66
Width: 528
Flags: MW
HStem: -18 20 687 20G<303 384 384 433.5>
Fore
448 163 m 0
 427 63 328 -19 229 -18 c 2
 148 -18 l 2
 49 -17 -14 63 7 163 c 2
 21 227 l 1
 159 227 l 1
 133 107 l 2
 126 72 146 51 179 52 c 2
 227 52 l 2
 260 52 292 72 298 107 c 0
 306 145 314 175 319 199 c 0
 331 261 253 278 180 306 c 0
 112 331 55 395 72 473 c 0
 77 497 75 487 84 526 c 0
 105 626 204 707 303 707 c 2
 384 707 l 2
 483 707 547 627 525 527 c 2
 517 488 l 1
 380 488 l 1
 396 565 l 2
 403 600 382 627 349 628 c 2
 304 628 l 2
 271 628 238 600 231 565 c 0
 227 547 228 554 223 528 c 0
 206 448 222 448 342 414 c 0
 415 393 486 342 460 219 c 0
 456 201 452 182 448 163 c 0
EndSplineSet
EndChar
StartChar: T
Encoding: 84 84 67
Width: 467
Flags: MW
HStem: 1 20 626 70G<121 223 106 495 360 480 360 360>
Fore
480 626 m 1
 360 626 l 1
 228 1 l 1
 90 1 l 1
 223 626 l 1
 106 626 l 1
 121 696 l 1
 495 696 l 1
 480 626 l 1
EndSplineSet
EndChar
StartChar: U
Encoding: 85 85 68
Width: 528
Flags: MW
HStem: -8 20 677 20G<120 258 120 120 424 562 424 424>
Fore
9 172 m 2
 -12 72 52 -8 151 -8 c 2
 232 -8 l 2
 332 -8 429 72 450 172 c 2
 562 697 l 1
 424 697 l 1
 305 134 l 2
 297 100 268 79 235 79 c 2
 187 79 l 2
 154 79 131 99 139 134 c 2
 258 697 l 1
 120 697 l 1
 9 172 l 2
EndSplineSet
EndChar
StartChar: V
Encoding: 86 86 69
Width: 491
Flags: MW
HStem: 2 20 677 20G<94 222 94 94 428 544 428 428>
Fore
223 2 m 1
 544 697 l 1
 428 697 l 1
 245 300 l 1
 239 281 l 1
 233 281 l 1
 236 302 l 1
 222 697 l 1
 94 697 l 1
 118 2 l 1
 223 2 l 1
EndSplineSet
EndChar
StartChar: W
Encoding: 87 87 70
Width: 800
Flags: MW
HStem: 1 20 677 20G<97 223 97 97 428 428 428 546 746 746 746 857>
VStem: 237 182<302 406>
Fore
246 300 m 1
 241 281 l 1
 234 281 l 1
 237 302 l 1
 223 697 l 1
 97 697 l 1
 120 1 l 1
 228 1 l 1
 410 405 l 1
 415 422 l 1
 420 422 l 1
 419 406 l 1
 432 1 l 1
 538 1 l 1
 857 697 l 1
 746 697 l 1
 564 300 l 1
 558 281 l 1
 551 281 l 1
 554 302 l 1
 546 697 l 1
 428 697 l 1
 246 300 l 1
EndSplineSet
EndChar
StartChar: X
Encoding: 88 88 71
Width: 496
Flags: MW
HStem: 1 20 677 20G<94 231 231 231 410 547 547 547>
Fore
547 697 m 1
 319 368 l 1
 417 1 l 1
 280 1 l 1
 220 224 l 1
 65 1 l 1
 -72 1 l 1
 182 368 l 1
 94 697 l 1
 231 697 l 1
 281 511 l 1
 410 697 l 1
 547 697 l 1
EndSplineSet
EndChar
StartChar: Y
Encoding: 89 89 72
Width: 493
Flags: MW
HStem: 1 20 677 20G<76 214 214 214 428 556 556 556>
Fore
76 697 m 1
 214 697 l 1
 265 482 l 1
 262 461 l 1
 278 461 l 1
 284 480 l 1
 428 697 l 1
 556 697 l 1
 306 326 l 1
 237 1 l 1
 99 1 l 1
 169 326 l 1
 76 697 l 1
EndSplineSet
EndChar
StartChar: Z
Encoding: 90 90 73
Width: 430
Flags: MW
HStem: 1 20 676 20G<120 455 455 455>
Fore
150 91 m 1
 326 91 l 1
 307 1 l 1
 -28 1 l 1
 -9 91 l 1
 285 626 l 1
 105 626 l 1
 120 696 l 1
 455 696 l 1
 440 625 l 1
 150 91 l 1
EndSplineSet
EndChar
StartChar: bracketleft
Encoding: 91 91 74
Width: 350
Flags: MW
HStem: -117 89<125 285> 716 70G
Fore
196 786 m 1
 479 786 l 1
 464 715 l 1
 283 715 l 1
 125 -28 l 1
 304 -28 l 1
 285 -117 l 1
 4 -117 l 1
 196 786 l 1
EndSplineSet
EndChar
StartChar: backslash
Encoding: 92 92 75
Width: 270
Flags: MW
VStem: 42 138<-53 -53>
Fore
87 751 m 1
 225 751 l 1
 180 -53 l 1
 42 -53 l 1
 87 751 l 1
EndSplineSet
EndChar
StartChar: bracketright
Encoding: 93 93 76
Width: 350
Flags: W
Fore
343 786 m 1
 60 786 l 1
 45 715 l 1
 226 715 l 1
 68 -28 l 1
 -110 -28 l 1
 -129 -117 l 1
 152 -117 l 1
 343 786 l 1
EndSplineSet
EndChar
StartChar: asciicircum
Encoding: 94 94 77
Width: 481
Flags: MW
HStem: 550 112G
Fore
264 662 m 1
 324 662 l 1
 354 551 l 1
 295 551 l 1
 281 601 l 1
 246 551 l 1
 187 551 l 1
 264 662 l 1
EndSplineSet
EndChar
StartChar: underscore
Encoding: 95 95 78
Width: 450
Flags: MW
HStem: -89 70G<53 382 38 397>
Fore
53 -19 m 1
 397 -19 l 1
 382 -89 l 1
 38 -89 l 1
 53 -19 l 1
EndSplineSet
EndChar
StartChar: grave
Encoding: 96 96 79
Width: 488
Flags: W
Fore
213 639 m 1
 297 657 l 1
 345 530 l 1
 261 512 l 1
 213 639 l 1
EndSplineSet
EndChar
StartChar: a
Encoding: 97 97 80
Width: 498
Flags: MW
HStem: -6 82<111.5 200 150 200> 424 85G<280 298.5>
VStem: 15 136 328 140G
Fore
412 1 m 1
 286 1 l 1
 282 10 279 27 281 45 c 1
 256 13 228 -7 173 -6 c 0
 170 -6 153 -6 150 -6 c 0
 73 -6 -2 40 18 135 c 2
 25 164 l 2
 37 220 104 291 249 303 c 2
 253 305 281 307 316 311 c 1
 327 361 l 2
 333 396 314 424 283 424 c 0
 253 424 222 396 212 361 c 2
 201 312 l 1
 67 312 l 1
 71 329 l 2
 93 429 181 509 280 509 c 2
 323 509 l 2
 422 509 485 430 464 330 c 2
 433 181 l 2
 402 35 410 45 412 1 c 1
152 136 m 0
 145 101 160 76 200 76 c 0
 231 75 271 104 278 139 c 2
 301 248 l 1
 266 243 239 236 235 235 c 0
 207 228 169 214 162 180 c 1
 162 177 160 170 152 136 c 0
EndSplineSet
EndChar
StartChar: b
Encoding: 98 98 81
Width: 484
Flags: MW
HStem: -1 70<138.5 200.5 170 194> 428 79G<269 276.5>
VStem: 307 140G
Fore
184 69 m 0
 217 69 248 88 255 123 c 2
 307 365 l 2
 314 400 293 428 260 428 c 0
 235 428 207 412 193 388 c 1
 134 108 l 1
 135 83 156 69 184 69 c 0
269 507 m 2
 302 507 l 2
 402 507 465 425 444 326 c 2
 410 170 l 2
 389 70 293 -1 194 -1 c 2
 152 -1 l 2
 125 -1 114 12 94 22 c 1
 84 1 l 1
 -29 1 l 1
 119 696 l 1
 259 696 l 1
 213 482 l 1
 224 493 252 507 269 507 c 2
EndSplineSet
EndChar
StartChar: c
Encoding: 99 99 82
Width: 475
Flags: MW
HStem: 1 20 226 60G<287 442> 489 20G<220.5 270 270 312>
Fore
442 286 m 1
 454 329 l 2
 475 429 412 509 312 509 c 2
 270 509 l 2
 171 509 73 429 52 329 c 2
 20 181 l 2
 -1 81 63 1 162 1 c 2
 204 1 l 2
 304 1 399 72 420 172 c 2
 431 226 l 1
 287 226 l 1
 265 125 l 2
 258 90 227 71 194 71 c 0
 161 71 138 90 146 125 c 2
 197 367 l 2
 205 402 237 430 270 430 c 0
 303 430 324 402 317 367 c 2
 300 287 l 1
 442 286 l 1
EndSplineSet
EndChar
StartChar: d
Encoding: 100 100 83
Width: 491
Flags: MW
HStem: -1 70<164.5 184 184 195 164.5 197> 428 79G<241.5 250 250 270.5> 676 20G<372 513 372 372>
VStem: -6 138
Fore
181 69 m 0
 148 69 126 88 133 123 c 2
 185 365 l 2
 192 400 225 428 258 428 c 0
 283 428 303 412 307 388 c 1
 247 108 l 1
 235 83 209 69 181 69 c 0
283 507 m 2
 250 507 l 2
 150 507 52 425 31 326 c 2
 -2 170 l 2
 -23 70 42 -1 142 -1 c 2
 184 -1 l 2
 210 -1 227 12 252 22 c 1
 253 1 l 1
 365 1 l 1
 513 696 l 1
 372 696 l 1
 327 482 l 1
 318 491 300 507 283 507 c 2
EndSplineSet
EndChar
StartChar: e
Encoding: 101 101 84
Width: 474
Flags: MW
HStem: 1 216 256 63G 430 79G<270 286.5>
VStem: 16 128 318 137G
Fore
430 216 m 1
 422 181 l 2
 401 81 303 1 204 1 c 2
 162 1 l 2
 62 1 -1 81 20 181 c 2
 52 329 l 2
 73 429 170 509 270 509 c 2
 312 509 l 2
 411 509 472 429 451 329 c 2
 436 257 l 1
 174 257 l 1
 146 125 l 2
 138 90 161 71 194 71 c 0
 227 71 258 90 265 125 c 2
 284 216 l 1
 430 216 l 1
306 319 m 1
 317 367 l 2
 324 402 303 430 270 430 c 0
 237 430 205 402 197 367 c 2
 187 319 l 1
 306 319 l 1
EndSplineSet
EndChar
StartChar: f
Encoding: 102 102 85
Width: 316
Flags: MW
HStem: 1 20 419 81G 520 179G<327 365 267.5 417 327 327>
VStem: 337 95G
Fore
128 1 m 1
 -9 1 l 1
 80 418 l 1
 42 418 l 1
 59 500 l 1
 97 500 l 1
 101 519 l 2
 132 665 219 699 316 699 c 0
 414 699 450 645 424 546 c 2
 417 520 l 1
 327 520 l 1
 335 556 l 2
 343 591 331 619 298 619 c 0
 265 619 255 596 248 561 c 2
 234 500 l 1
 316 500 l 1
 298 418 l 1
 217 418 l 1
 128 1 l 1
EndSplineSet
EndChar
StartChar: g
Encoding: 103 103 86
Width: 484
Flags: MW
HStem: -215 20 -145 144<185 196.5> 487 20G<243 293 293 335>
Fore
247 -93 m 2
 240 -128 213 -145 180 -145 c 0
 147 -145 124 -126 131 -91 c 2
 147 -17 l 1
 5 -17 l 1
 -3 -44 l 2
 -24 -144 41 -215 141 -215 c 2
 183 -215 l 2
 282 -215 380 -131 401 -32 c 2
 515 505 l 1
 403 505 l 1
 391 475 l 1
 381 486 362 507 335 507 c 2
 293 507 l 2
 193 507 98 436 77 336 c 2
 43 180 l 2
 22 81 85 -1 185 -1 c 2
 218 -1 l 2
 235 -1 258 10 272 23 c 1
 247 -93 l 2
232 383 m 2
 239 418 270 437 303 437 c 0
 331 437 351 424 352 399 c 1
 292 118 l 1
 279 94 252 78 227 78 c 0
 194 78 173 106 180 141 c 2
 232 383 l 2
EndSplineSet
EndChar
StartChar: h
Encoding: 104 104 87
Width: 492
Flags: MW
HStem: 1 20 430 79G<242.5 319>
VStem: 306 141G
Fore
294 509 m 2
 319 509 l 2
 418 509 463 427 442 328 c 2
 372 1 l 1
 227 1 l 1
 304 367 l 2
 312 402 292 430 259 430 c 0
 226 430 194 402 186 367 c 2
 109 1 l 1
 -29 1 l 1
 119 697 l 1
 256 697 l 1
 209 473 l 1
 229 491 273 509 294 509 c 2
EndSplineSet
EndChar
StartChar: i
Encoding: 105 105 88
Width: 228
Flags: MW
HStem: 1 20 540 140G<101 238 136 208>
Fore
79 499 m 1
 216 499 l 1
 111 1 l 1
 -27 1 l 1
 79 499 l 1
136 680 m 2
 238 680 l 2
 248 680 254 672 252 662 c 2
 230 558 l 2
 228 548 218 540 208 540 c 2
 106 540 l 2
 96 540 90 548 92 558 c 2
 114 662 l 2
 116 672 126 680 136 680 c 2
EndSplineSet
EndChar
StartChar: j
Encoding: 106 106 89
Width: 241
Flags: MW
HStem: -158 81<-107 -50 -50 -39.5 -107 6 -124 -50> 540 140G<131 267 165 237>
Fore
108 499 m 1
 246 499 l 1
 128 -53 l 2
 112 -129 39 -160 6 -158 c 2
 -124 -158 l 1
 -107 -77 l 1
 -50 -77 l 2
 -29 -77 -8 -51 -2 -20 c 2
 108 499 l 1
165 680 m 2
 267 680 l 2
 277 680 283 672 281 662 c 2
 259 558 l 2
 257 548 247 540 237 540 c 2
 136 540 l 2
 126 540 119 548 121 558 c 2
 144 662 l 2
 146 672 155 680 165 680 c 2
EndSplineSet
EndChar
StartChar: k
Encoding: 107 107 90
Width: 463
Flags: MW
HStem: 1 20 677 20G<119 257 119 119>
Fore
257 697 m 1
 119 697 l 1
 -29 1 l 1
 109 1 l 1
 138 138 l 1
 194 199 l 1
 249 1 l 1
 405 1 l 1
 284 296 l 1
 479 509 l 1
 342 509 l 1
 177 324 l 1
 257 697 l 1
EndSplineSet
EndChar
StartChar: l
Encoding: 108 108 91
Width: 228
Flags: MW
HStem: 1 20 677 20G<119 257 257 257>
Fore
119 697 m 1
 257 697 l 1
 108 1 l 1
 -29 1 l 1
 119 697 l 1
EndSplineSet
EndChar
StartChar: m
Encoding: 109 109 92
Width: 715
Flags: MW
HStem: 1 20 489 20G<303.5 314 314 330 517 538 538 571>
Fore
449 375 m 2
 456 407 490 430 520 430 c 0
 553 430 565 402 557 367 c 2
 480 1 l 1
 616 1 l 1
 685 328 l 2
 706 427 670 509 571 509 c 2
 538 509 l 2
 496 509 459 476 425 447 c 1
 404 480 379 509 330 509 c 2
 314 509 l 2
 293 509 244 479 224 455 c 1
 236 508 l 1
 99 508 l 1
 -9 1 l 1
 128 1 l 1
 206 367 l 2
 213 402 246 430 279 430 c 0
 312 430 323 402 316 367 c 2
 238 1 l 1
 370 1 l 1
 449 375 l 2
EndSplineSet
EndChar
StartChar: n
Encoding: 110 110 93
Width: 492
Flags: MW
HStem: 1 20 430 79G<262.5 339>
VStem: 327 140G
Fore
306 509 m 2
 339 509 l 2
 438 509 483 427 462 328 c 2
 392 1 l 1
 247 2 l 1
 325 367 l 2
 332 402 312 430 279 430 c 0
 246 430 213 402 206 367 c 2
 128 2 l 1
 -9 1 l 1
 99 508 l 1
 236 508 l 1
 224 455 l 1
 246 482 285 509 306 509 c 2
EndSplineSet
EndChar
StartChar: o
Encoding: 111 111 94
Width: 474
Flags: MW
HStem: 1 20 489 20G<220.5 270 270 312>
Fore
265 125 m 2
 258 90 227 71 194 71 c 0
 161 71 138 90 146 125 c 2
 197 367 l 2
 205 402 237 430 270 430 c 0
 303 430 324 402 317 367 c 2
 265 125 l 2
312 509 m 2
 270 509 l 2
 171 509 73 429 52 329 c 2
 20 181 l 2
 -1 81 63 1 162 1 c 2
 204 1 l 2
 304 1 399 72 420 172 c 2
 454 328 l 2
 475 427 412 509 312 509 c 2
EndSplineSet
EndChar
StartChar: p
Encoding: 112 112 95
Width: 484
Flags: MW
HStem: -190 20 487 20G<286.5 300 300 342>
Fore
302 437 m 0
 335 437 358 418 351 383 c 2
 299 141 l 2
 292 106 259 78 226 78 c 0
 200 78 180 94 176 118 c 1
 236 398 l 1
 248 423 275 437 302 437 c 0
201 -1 m 2
 234 -1 l 2
 334 -1 432 81 453 180 c 2
 486 336 l 2
 507 436 442 507 342 507 c 2
 300 507 l 2
 273 507 257 493 230 475 c 1
 231 505 l 1
 119 505 l 1
 -29 -190 l 1
 111 -190 l 1
 152 6 l 1
 167 2 184 -1 201 -1 c 2
EndSplineSet
EndChar
StartChar: q
Encoding: 113 113 96
Width: 484
Flags: MW
HStem: -1 79<132.5 236.5 207.5 215> 437 70G<290 314>
VStem: 37 140
Fore
300 437 m 0
 267 437 236 418 229 383 c 2
 178 141 l 2
 170 106 191 78 224 78 c 0
 249 78 276 94 290 118 c 1
 349 398 l 1
 348 423 328 437 300 437 c 0
215 -1 m 2
 182 -1 l 2
 83 -1 19 81 41 180 c 2
 74 336 l 2
 95 436 191 507 290 507 c 2
 332 507 l 2
 359 507 372 490 389 475 c 1
 400 505 l 1
 513 505 l 1
 365 -190 l 1
 224 -190 l 1
 266 6 l 1
 249 2 232 -1 215 -1 c 2
EndSplineSet
EndChar
StartChar: r
Encoding: 114 114 97
Width: 382
Flags: MW
HStem: 1 20 336 171G<292 313 313 362.5 279 393 292 292>
VStem: 306 103G
Fore
303 383 m 2
 310 418 306 437 273 437 c 0
 245 437 227 423 215 398 c 1
 130 2 l 1
 -9 1 l 1
 98 505 l 1
 210 505 l 1
 205 457 l 1
 220 475 253 507 279 507 c 2
 313 507 l 2
 412 507 425 481 393 336 c 1
 292 336 l 1
 303 383 l 2
EndSplineSet
EndChar
StartChar: s
Encoding: 115 115 98
Width: 475
Flags: MW
HStem: -8 70<184.5 203 203 217.5 184.5 253> 439 70G<256.5 271 271 289.5>
VStem: 13 138 321 129G
Fore
272 116 m 0
 264 81 234 62 201 62 c 0
 168 62 145 81 153 116 c 2
 167 181 l 1
 23 181 l 1
 17 163 l 2
 -4 63 62 -8 161 -8 c 2
 203 -8 l 2
 303 -8 393 34 418 154 c 0
 455 329 177 270 200 376 c 0
 207 411 240 439 273 439 c 0
 306 439 327 411 319 376 c 2
 306 314 l 1
 440 314 l 1
 445 329 l 2
 467 429 412 509 313 509 c 2
 271 509 l 2
 156 509 83 451 60 347 c 0
 27 200 237 211 274 169 c 0
 282 160 275 131 272 116 c 0
EndSplineSet
EndChar
StartChar: t
Encoding: 116 116 99
Width: 418
Flags: MW
HStem: -8 70<116 226.5 166 226.5> 419 81G<41 121 24 139 277 380>
Fore
41 500 m 1
 139 500 l 1
 173 661 l 1
 311 661 l 1
 277 500 l 1
 397 500 l 1
 380 419 l 1
 260 419 l 1
 195 116 l 2
 192 102 188 62 210 62 c 0
 243 62 252 90 260 125 c 2
 276 199 l 1
 364 199 l 1
 348 145 l 2
 326 45 298 -8 199 -8 c 2
 166 -8 l 2
 66 -8 44 54 65 154 c 2
 121 419 l 1
 24 419 l 1
 41 500 l 1
EndSplineSet
EndChar
StartChar: u
Encoding: 117 117 100
Width: 492
Flags: MW
HStem: 1 79 489 20G<99 244 244 244 363 501 501 501>
VStem: 25 141
Fore
195 1 m 2
 153 1 l 2
 54 1 9 84 30 183 c 2
 99 509 l 1
 244 509 l 1
 167 144 l 2
 159 109 180 81 213 81 c 0
 246 81 278 109 285 144 c 2
 363 509 l 1
 501 509 l 1
 393 3 l 1
 282 3 l 1
 285 56 l 1
 263 29 216 1 195 1 c 2
EndSplineSet
EndChar
StartChar: v
Encoding: 118 118 101
Width: 425
Flags: MW
HStem: 1 186 489 20G<59 189 189 189 339 460 460 460>
VStem: 95 101
Fore
59 509 m 1
 189 509 l 1
 195 196 l 1
 193 186 l 1
 208 186 l 1
 210 196 l 1
 339 509 l 1
 460 509 l 1
 229 1 l 1
 94 1 l 1
 59 509 l 1
EndSplineSet
EndChar
StartChar: w
Encoding: 119 119 102
Width: 680
Flags: MW
HStem: 1 20 489 20G<63 190 63 63 338 448 338 338 575 575 575 690>
VStem: 195 130
Fore
437 207 m 1
 448 509 l 1
 338 509 l 1
 213 204 l 1
 208 180 l 1
 195 180 l 1
 190 509 l 1
 63 509 l 1
 98 1 l 1
 217 1 l 1
 318 224 l 1
 325 1 l 1
 447 1 l 1
 690 509 l 1
 575 509 l 1
 445 180 l 1
 431 180 l 1
 437 207 l 1
EndSplineSet
EndChar
StartChar: x
Encoding: 120 120 103
Width: 422
Flags: MW
HStem: 0 20 489 20G<66 198 198 198 339 458 458 458>
Fore
79 0 m 1
 -41 0 l 1
 140 249 l 1
 142 256 l 1
 66 509 l 1
 198 509 l 1
 239 386 l 1
 238 370 l 1
 242 370 l 1
 248 386 l 1
 339 509 l 1
 458 509 l 1
 279 275 l 1
 363 0 l 1
 210 0 l 1
 179 126 l 1
 180 142 l 1
 176 142 l 1
 169 127 l 1
 79 0 l 1
EndSplineSet
EndChar
StartChar: y
Encoding: 121 121 104
Width: 410
Flags: MW
HStem: -206 20 489 20G<81 226 226 226 344 482 482 482>
Fore
81 509 m 1
 226 509 l 1
 217 196 l 1
 215 186 l 1
 221 186 l 1
 223 196 l 1
 344 509 l 1
 482 509 l 1
 242 1 l 2
 195 -100 182 -142 148 -180 c 1
 84 -215 57 -206 -30 -203 c 1
 -5 -87 l 1
 69 -87 l 2
 81 -87 95 -82 104 -76 c 1
 112 -65 116 -56 116 -36 c 2
 116 1 l 1
 81 509 l 1
EndSplineSet
EndChar
StartChar: z
Encoding: 122 122 105
Width: 472
Flags: MW
HStem: 0 98 429 80G<90 318 318 318 473 473>
Fore
490 509 m 1
 90 509 l 1
 73 429 l 1
 318 429 l 1
 3 99 l 1
 -18 0 l 1
 381 0 l 1
 402 99 l 1
 169 99 l 1
 473 429 l 1
 490 509 l 1
EndSplineSet
EndChar
StartChar: braceleft
Encoding: 123 123 106
Width: 252
Flags: MW
HStem: 647 88G
VStem: 46 109
Fore
110 562 m 0
 143 702 228 735 324 735 c 1
 306 646 l 1
 273 646 232 626 226 589 c 0
 212 504 189 395 144 378 c 1
 140 358 l 1
 180 322 129 130 111 47 c 0
 105 12 111 -14 166 -10 c 1
 149 -89 l 1
 48 -103 -24 -84 3 56 c 0
 15 118 76 308 28 348 c 1
 37 387 l 1
 84 418 93 473 110 562 c 0
EndSplineSet
EndChar
StartChar: bar
Encoding: 124 124 107
Width: 258
Flags: W
Fore
168 796 m 1
 306 796 l 1
 99 -179 l 1
 -39 -179 l 1
 168 796 l 1
EndSplineSet
EndChar
StartChar: braceright
Encoding: 125 125 108
Width: 252
Flags: W
Fore
245 562 m 0
 272 702 200 735 104 735 c 1
 85 646 l 1
 118 646 150 626 141 589 c 0
 119 504 96 395 133 378 c 1
 128 358 l 1
 73 322 42 130 25 47 c 0
 16 12 -1 -14 -54 -10 c 1
 -71 -89 l 1
 25 -103 104 -84 137 56 c 0
 152 118 171 308 236 348 c 1
 244 387 l 1
 209 418 225 473 245 562 c 0
EndSplineSet
EndChar
StartChar: asciitilde
Encoding: 126 126 109
Width: 450
Flags: MW
HStem: 350 101G
Fore
153 424 m 1
 168 431 188 450 243 451 c 0
 313 452 323 397 365 397 c 0
 390 397 421 411 449 426 c 1
 428 325 l 1
 405 313 386 296 340 296 c 0
 277 296 265 350 221 350 c 0
 176 350 171 344 131 323 c 1
 153 424 l 1
EndSplineSet
EndChar
StartChar: Adieresis
Encoding: 128 196 110
Width: 488
Flags: W
Fore
384 695 m 1
 409 1 l 1
 271 1 l 1
 266 153 l 1
 118 153 l 1
 48 1 l 1
 -72 1 l 1
 247 695 l 1
 384 695 l 1
150 223 m 1
 263 223 l 1
 265 433 l 1
 270 471 l 1
 249 471 l 1
 237 432 l 1
 150 223 l 1
223 859 m 2
 280 859 l 2
 290 859 296 851 294 841 c 2
 273 741 l 2
 271 731 261 723 251 723 c 2
 194 723 l 2
 184 723 178 731 180 741 c 2
 201 841 l 2
 204 851 213 859 223 859 c 2
412 859 m 2
 469 859 l 2
 479 859 485 851 483 841 c 2
 462 741 l 2
 460 731 450 723 440 723 c 2
 383 723 l 2
 373 723 367 731 369 741 c 2
 390 841 l 2
 393 851 402 859 412 859 c 2
EndSplineSet
EndChar
StartChar: Aring
Encoding: 129 197 111
Width: 488
Flags: W
Fore
384 695 m 1
 409 1 l 1
 271 1 l 1
 266 153 l 1
 118 153 l 1
 48 1 l 1
 -72 1 l 1
 247 695 l 1
 384 695 l 1
150 223 m 1
 263 223 l 1
 265 433 l 1
 270 471 l 1
 249 471 l 1
 237 432 l 1
 150 223 l 1
EndSplineSet
EndChar
StartChar: Ccedilla
Encoding: 130 199 112
Width: 528
Flags: W
Fore
378 488 m 1
 395 565 l 2
 402 600 381 627 348 628 c 2
 302 628 l 2
 269 628 237 600 229 565 c 2
 138 134 l 2
 130 99 153 79 186 79 c 2
 234 79 l 2
 267 78 296 99 303 134 c 2
 325 236 l 1
 462 236 l 1
 449 172 l 2
 428 72 331 -8 231 -8 c 2
 150 -8 l 2
 50 -9 -13 72 8 172 c 2
 84 527 l 2
 105 627 203 707 302 707 c 2
 383 707 l 2
 482 707 545 627 524 527 c 2
 516 488 l 1
 378 488 l 1
EndSplineSet
EndChar
StartChar: Eacute
Encoding: 131 201 113
Width: 443
Flags: W
Fore
440 626 m 1
 243 626 l 1
 202 431 l 1
 396 431 l 1
 381 361 l 1
 187 361 l 1
 129 89 l 1
 325 89 l 1
 307 1 l 1
 -28 1 l 1
 120 697 l 1
 456 697 l 1
 440 626 l 1
EndSplineSet
EndChar
StartChar: Ntilde
Encoding: 132 209 114
Width: 493
Flags: W
Fore
170 373 m 1
 91 1 l 1
 -28 1 l 1
 122 706 l 1
 247 706 l 1
 319 347 l 1
 318 333 l 1
 321 333 l 1
 401 706 l 1
 529 706 l 1
 379 1 l 1
 251 1 l 1
 180 352 l 1
 184 373 l 1
 170 373 l 1
EndSplineSet
EndChar
StartChar: Odieresis
Encoding: 133 214 115
Width: 528
Flags: W
Fore
303 134 m 2
 296 99 267 79 234 79 c 2
 186 79 l 2
 153 79 130 99 138 134 c 2
 229 565 l 2
 237 600 269 628 302 628 c 2
 348 628 l 2
 381 628 402 600 395 565 c 2
 303 134 l 2
449 172 m 2
 524 527 l 2
 545 627 482 707 383 707 c 2
 302 707 l 2
 203 707 105 627 84 527 c 2
 8 172 l 2
 -13 72 51 -8 150 -8 c 2
 231 -8 l 2
 331 -8 428 72 449 172 c 2
EndSplineSet
EndChar
StartChar: Udieresis
Encoding: 134 220 116
Width: 528
Flags: W
Fore
9 172 m 2
 -12 72 52 -8 151 -8 c 2
 232 -8 l 2
 332 -8 429 72 450 172 c 2
 561 697 l 1
 424 697 l 1
 305 134 l 2
 297 100 268 79 235 79 c 2
 187 79 l 2
 154 79 131 99 139 134 c 2
 258 697 l 1
 120 697 l 1
 9 172 l 2
241 859 m 2
 298 859 l 2
 308 859 314 851 312 841 c 2
 291 741 l 2
 289 731 279 723 269 723 c 2
 212 723 l 2
 202 723 196 731 198 741 c 2
 219 841 l 2
 222 851 231 859 241 859 c 2
430 859 m 2
 487 859 l 2
 497 859 503 851 501 841 c 2
 480 741 l 2
 478 731 468 723 458 723 c 2
 401 723 l 2
 391 723 385 731 387 741 c 2
 408 841 l 2
 411 851 420 859 430 859 c 2
EndSplineSet
EndChar
StartChar: aacute
Encoding: 135 225 117
Width: 498
Flags: W
Fore
412 1 m 1
 286 1 l 1
 282 10 279 27 281 45 c 1
 256 13 228 -7 173 -6 c 0
 170 -6 153 -6 150 -6 c 0
 73 -6 -2 40 18 135 c 2
 25 164 l 2
 37 220 104 291 249 303 c 2
 253 305 280 307 316 311 c 1
 327 361 l 2
 333 396 314 424 283 424 c 0
 253 424 222 396 212 361 c 2
 201 312 l 1
 67 312 l 1
 71 329 l 2
 93 429 181 509 280 509 c 2
 323 509 l 2
 422 509 485 430 464 330 c 2
 433 181 l 2
 402 35 410 45 412 1 c 1
152 136 m 0
 145 101 160 76 200 76 c 0
 231 75 271 104 278 139 c 2
 301 248 l 1
 266 243 239 236 235 235 c 0
 207 228 169 214 162 180 c 1
 162 177 160 170 152 136 c 0
370 648 m 1
 294 666 l 1
 191 539 l 1
 268 521 l 1
 370 648 l 1
EndSplineSet
EndChar
StartChar: agrave
Encoding: 136 224 118
Width: 498
Flags: W
Fore
412 1 m 1
 286 1 l 1
 282 10 279 27 281 45 c 1
 256 13 228 -7 173 -6 c 0
 170 -6 153 -6 150 -6 c 0
 73 -6 -2 40 18 135 c 2
 25 164 l 2
 37 220 104 291 249 303 c 2
 253 305 280 307 316 311 c 1
 327 361 l 2
 333 396 314 424 283 424 c 0
 253 424 222 396 212 361 c 2
 201 312 l 1
 67 312 l 1
 71 329 l 2
 93 429 181 509 280 509 c 2
 323 509 l 2
 422 509 485 430 464 330 c 2
 433 181 l 2
 402 35 410 45 412 1 c 1
152 136 m 0
 145 101 160 76 200 76 c 0
 231 75 271 104 278 139 c 2
 301 248 l 1
 266 243 239 236 235 235 c 0
 207 228 169 214 162 180 c 1
 162 177 160 170 152 136 c 0
265 648 m 1
 349 666 l 1
 397 539 l 1
 313 521 l 1
 265 648 l 1
EndSplineSet
EndChar
StartChar: acircumflex
Encoding: 137 226 119
Width: 481
Flags: W
Fore
412 1 m 1
 286 1 l 1
 282 10 279 27 281 45 c 1
 256 13 228 -7 173 -6 c 0
 170 -6 153 -6 150 -6 c 0
 73 -6 -2 40 18 135 c 2
 25 164 l 2
 37 220 104 291 249 303 c 2
 253 305 280 307 316 311 c 1
 327 361 l 2
 333 396 314 424 283 424 c 0
 253 424 222 396 212 361 c 2
 201 312 l 1
 67 312 l 1
 71 329 l 2
 93 429 181 509 280 509 c 2
 323 509 l 2
 422 509 485 430 464 330 c 2
 433 181 l 2
 402 35 410 45 412 1 c 1
152 136 m 0
 145 101 160 76 200 76 c 0
 231 75 271 104 278 139 c 2
 301 248 l 1
 266 243 239 236 235 235 c 0
 207 228 169 214 162 180 c 1
 162 177 160 170 152 136 c 0
264 662 m 1
 324 662 l 1
 354 551 l 1
 295 551 l 1
 281 601 l 1
 246 551 l 1
 187 551 l 1
 264 662 l 1
EndSplineSet
EndChar
StartChar: adieresis
Encoding: 138 228 120
Width: 498
Flags: W
Fore
412 1 m 1
 286 1 l 1
 282 10 279 27 281 45 c 1
 256 13 228 -7 173 -6 c 0
 170 -6 153 -6 150 -6 c 0
 73 -6 -2 40 18 135 c 2
 25 164 l 2
 37 220 104 291 249 303 c 2
 253 305 280 307 316 311 c 1
 327 361 l 2
 333 396 314 424 283 424 c 0
 253 424 222 396 212 361 c 2
 201 312 l 1
 67 312 l 1
 71 329 l 2
 93 429 181 509 280 509 c 2
 323 509 l 2
 422 509 485 430 464 330 c 2
 433 181 l 2
 402 35 410 45 412 1 c 1
152 136 m 0
 145 101 160 76 200 76 c 0
 231 75 271 104 278 139 c 2
 301 248 l 1
 266 243 239 236 235 235 c 0
 207 228 169 214 162 180 c 1
 162 177 160 170 152 136 c 0
203 679 m 2
 260 679 l 2
 270 679 276 671 274 661 c 2
 253 561 l 2
 251 551 241 543 231 543 c 2
 174 543 l 2
 164 543 158 551 160 561 c 2
 181 661 l 2
 183 671 193 679 203 679 c 2
392 679 m 2
 449 679 l 2
 459 679 465 671 463 661 c 2
 442 561 l 2
 440 551 430 543 420 543 c 2
 363 543 l 2
 353 543 347 551 349 561 c 2
 370 661 l 2
 372 671 382 679 392 679 c 2
EndSplineSet
EndChar
StartChar: atilde
Encoding: 139 227 121
Width: 498
Flags: W
Fore
412 1 m 1
 286 1 l 1
 282 10 279 27 281 45 c 1
 256 13 228 -7 173 -6 c 0
 170 -6 153 -6 150 -6 c 0
 73 -6 -2 40 18 135 c 2
 25 164 l 2
 37 220 104 291 249 303 c 2
 253 305 280 307 316 311 c 1
 327 361 l 2
 333 396 314 424 283 424 c 0
 253 424 222 396 212 361 c 2
 201 312 l 1
 67 312 l 1
 71 329 l 2
 93 429 181 509 280 509 c 2
 323 509 l 2
 422 509 485 430 464 330 c 2
 433 181 l 2
 402 35 410 45 412 1 c 1
152 136 m 0
 145 101 160 76 200 76 c 0
 231 75 271 104 278 139 c 2
 301 248 l 1
 266 243 239 236 235 235 c 0
 207 228 169 214 162 180 c 1
 162 177 160 170 152 136 c 0
EndSplineSet
EndChar
StartChar: aring
Encoding: 140 229 122
Width: 498
Flags: W
Fore
412 1 m 1
 286 1 l 1
 282 10 279 27 281 45 c 1
 256 13 228 -7 173 -6 c 0
 170 -6 153 -6 150 -6 c 0
 73 -6 -2 40 18 135 c 2
 25 164 l 2
 37 220 104 291 249 303 c 2
 253 305 280 307 316 311 c 1
 327 361 l 2
 333 396 314 424 283 424 c 0
 253 424 222 396 212 361 c 2
 201 312 l 1
 67 312 l 1
 71 329 l 2
 93 429 181 509 280 509 c 2
 323 509 l 2
 422 509 485 430 464 330 c 2
 433 181 l 2
 402 35 410 45 412 1 c 1
152 136 m 0
 145 101 160 76 200 76 c 0
 231 75 271 104 278 139 c 2
 301 248 l 1
 266 243 239 236 235 235 c 0
 207 228 169 214 162 180 c 1
 162 177 160 170 152 136 c 0
393 605 m 0
 383 559 339 522 293 522 c 0
 248 522 219 559 228 605 c 0
 238 650 283 687 328 687 c 0
 374 687 403 650 393 605 c 0
354 606 m 0
 360 631 344 651 319 651 c 0
 295 651 270 631 265 606 c 0
 260 581 276 561 300 561 c 0
 325 561 349 581 354 606 c 0
EndSplineSet
EndChar
StartChar: ccedilla
Encoding: 141 231 123
Width: 475
Flags: W
Fore
442 286 m 1
 454 329 l 2
 475 429 412 509 312 509 c 2
 270 509 l 2
 171 509 73 429 52 329 c 2
 20 181 l 2
 -1 81 63 1 162 1 c 2
 204 1 l 2
 304 1 399 72 420 172 c 2
 431 226 l 1
 287 226 l 1
 265 125 l 2
 258 90 227 71 194 71 c 0
 161 71 138 90 146 125 c 2
 197 367 l 2
 205 402 237 430 270 430 c 0
 303 430 324 402 317 367 c 2
 300 287 l 1
 442 286 l 1
219 -48 m 1
 231 -41 244 -36 255 -37 c 2
 268 -37 l 2
 315 -38 346 -75 336 -123 c 2
 325 -170 l 2
 315 -218 269 -256 221 -256 c 2
 195 -257 l 2
 147 -257 117 -218 127 -170 c 2
 134 -139 l 1
 200 -139 l 1
 189 -188 l 2
 185 -205 197 -214 212 -215 c 2
 222 -215 l 2
 238 -215 252 -205 255 -188 c 2
 274 -105 l 2
 277 -88 268 -78 252 -78 c 2
 241 -79 l 2
 225 -79 209 -88 207 -96 c 1
 147 -96 l 1
 173 30 l 1
 235 30 l 1
 219 -48 l 1
EndSplineSet
EndChar
StartChar: eacute
Encoding: 142 233 124
Width: 474
Flags: W
Fore
430 216 m 1
 422 181 l 2
 401 81 303 1 204 1 c 2
 162 1 l 2
 62 1 -1 81 20 181 c 2
 52 329 l 2
 73 429 170 509 270 509 c 2
 312 509 l 2
 411 509 472 429 451 329 c 2
 436 257 l 1
 174 257 l 1
 146 125 l 2
 138 90 161 71 194 71 c 0
 227 71 258 90 265 125 c 2
 284 216 l 1
 430 216 l 1
306 319 m 1
 317 367 l 2
 324 402 303 430 270 430 c 0
 237 430 205 402 197 367 c 2
 187 319 l 1
 306 319 l 1
370 648 m 1
 294 666 l 1
 191 539 l 1
 268 521 l 1
 370 648 l 1
EndSplineSet
EndChar
StartChar: egrave
Encoding: 143 232 125
Width: 474
Flags: W
Fore
430 216 m 1
 422 181 l 2
 401 81 303 1 204 1 c 2
 162 1 l 2
 62 1 -1 81 20 181 c 2
 52 329 l 2
 73 429 170 509 270 509 c 2
 312 509 l 2
 411 509 472 429 451 329 c 2
 436 257 l 1
 174 257 l 1
 146 125 l 2
 138 90 161 71 194 71 c 0
 227 71 258 90 265 125 c 2
 284 216 l 1
 430 216 l 1
306 319 m 1
 317 367 l 2
 324 402 303 430 270 430 c 0
 237 430 205 402 197 367 c 2
 187 319 l 1
 306 319 l 1
215 648 m 1
 299 666 l 1
 347 539 l 1
 263 521 l 1
 215 648 l 1
EndSplineSet
EndChar
StartChar: ecircumflex
Encoding: 144 234 126
Width: 481
Flags: W
Fore
430 216 m 1
 422 181 l 2
 401 81 303 1 204 1 c 2
 162 1 l 2
 62 1 -1 81 20 181 c 2
 52 329 l 2
 73 429 170 509 270 509 c 2
 312 509 l 2
 411 509 472 429 451 329 c 2
 436 257 l 1
 174 257 l 1
 146 125 l 2
 138 90 161 71 194 71 c 0
 227 71 258 90 265 125 c 2
 284 216 l 1
 430 216 l 1
306 319 m 1
 317 367 l 2
 324 402 303 430 270 430 c 0
 237 430 205 402 197 367 c 2
 187 319 l 1
 306 319 l 1
264 662 m 1
 324 662 l 1
 354 551 l 1
 295 551 l 1
 281 601 l 1
 246 551 l 1
 187 551 l 1
 264 662 l 1
EndSplineSet
EndChar
StartChar: edieresis
Encoding: 145 235 127
Width: 474
Flags: W
Fore
430 216 m 1
 422 181 l 2
 401 81 303 1 204 1 c 2
 162 1 l 2
 62 1 -1 81 20 181 c 2
 52 329 l 2
 73 429 170 509 270 509 c 2
 312 509 l 2
 411 509 472 429 451 329 c 2
 436 257 l 1
 174 257 l 1
 146 125 l 2
 138 90 161 71 194 71 c 0
 227 71 258 90 265 125 c 2
 284 216 l 1
 430 216 l 1
306 319 m 1
 317 367 l 2
 324 402 303 430 270 430 c 0
 237 430 205 402 197 367 c 2
 187 319 l 1
 306 319 l 1
185 679 m 2
 242 679 l 2
 252 679 258 671 256 661 c 2
 235 561 l 2
 233 551 223 543 213 543 c 2
 156 543 l 2
 146 543 140 551 142 561 c 2
 163 661 l 2
 165 671 175 679 185 679 c 2
374 679 m 2
 431 679 l 2
 441 679 447 671 445 661 c 2
 424 561 l 2
 422 551 412 543 402 543 c 2
 345 543 l 2
 335 543 329 551 331 561 c 2
 352 661 l 2
 354 671 364 679 374 679 c 2
EndSplineSet
EndChar
StartChar: iacute
Encoding: 146 237 128
Width: 228
Flags: W
Fore
98 499 m 1
 235 499 l 1
 130 1 l 1
 -8 1 l 1
 98 499 l 1
253 648 m 1
 177 666 l 1
 74 539 l 1
 151 521 l 1
 253 648 l 1
EndSplineSet
EndChar
StartChar: igrave
Encoding: 147 236 129
Width: 228
Flags: W
Fore
98 499 m 1
 235 499 l 1
 130 1 l 1
 -8 1 l 1
 98 499 l 1
98 648 m 1
 182 666 l 1
 230 539 l 1
 146 521 l 1
 98 648 l 1
EndSplineSet
EndChar
StartChar: icircumflex
Encoding: 148 238 130
Width: 228
Flags: W
Fore
98 499 m 1
 235 499 l 1
 130 1 l 1
 -8 1 l 1
 98 499 l 1
147 662 m 1
 207 662 l 1
 237 551 l 1
 178 551 l 1
 164 601 l 1
 129 551 l 1
 70 551 l 1
 147 662 l 1
EndSplineSet
EndChar
StartChar: idieresis
Encoding: 149 239 131
Width: 228
Flags: W
Fore
98 499 m 1
 235 499 l 1
 130 1 l 1
 -8 1 l 1
 98 499 l 1
59 679 m 2
 116 679 l 2
 126 679 132 671 130 661 c 2
 109 561 l 2
 107 551 97 543 87 543 c 2
 30 543 l 2
 20 543 14 551 16 561 c 2
 37 661 l 2
 39 671 49 679 59 679 c 2
248 679 m 2
 305 679 l 2
 315 679 321 671 319 661 c 2
 298 561 l 2
 296 551 286 543 276 543 c 2
 219 543 l 2
 209 543 203 551 205 561 c 2
 226 661 l 2
 228 671 238 679 248 679 c 2
EndSplineSet
EndChar
StartChar: ntilde
Encoding: 150 241 132
Width: 492
Flags: W
Fore
306 509 m 2
 338 509 l 2
 438 509 483 427 462 328 c 2
 392 1 l 1
 247 2 l 1
 325 367 l 2
 332 402 312 430 279 430 c 0
 246 430 213 402 206 367 c 2
 128 2 l 1
 -9 1 l 1
 99 508 l 1
 236 508 l 1
 224 455 l 1
 246 482 285 509 306 509 c 2
200 649 m 1
 215 656 236 675 291 676 c 0
 361 677 371 622 412 622 c 0
 438 622 468 636 497 651 c 1
 475 550 l 1
 453 538 434 521 388 521 c 0
 324 521 312 575 268 575 c 0
 224 575 219 569 179 548 c 1
 200 649 l 1
EndSplineSet
EndChar
StartChar: oacute
Encoding: 151 243 133
Width: 474
Flags: W
Fore
265 125 m 2
 258 90 227 71 194 71 c 0
 161 71 138 90 146 125 c 2
 197 367 l 2
 205 402 237 430 270 430 c 0
 303 430 324 402 317 367 c 2
 265 125 l 2
312 509 m 2
 270 509 l 2
 171 509 73 429 52 329 c 2
 20 181 l 2
 -1 81 63 1 162 1 c 2
 204 1 l 2
 304 1 399 72 420 172 c 2
 454 328 l 2
 475 427 412 509 312 509 c 2
370 648 m 1
 294 666 l 1
 191 539 l 1
 268 521 l 1
 370 648 l 1
EndSplineSet
EndChar
StartChar: ograve
Encoding: 152 242 134
Width: 474
Flags: W
Fore
265 125 m 2
 258 90 227 71 194 71 c 0
 161 71 138 90 146 125 c 2
 197 367 l 2
 205 402 237 430 270 430 c 0
 303 430 324 402 317 367 c 2
 265 125 l 2
312 509 m 2
 270 509 l 2
 171 509 73 429 52 329 c 2
 20 181 l 2
 -1 81 63 1 162 1 c 2
 204 1 l 2
 304 1 399 72 420 172 c 2
 454 328 l 2
 475 427 412 509 312 509 c 2
215 648 m 1
 299 666 l 1
 347 539 l 1
 263 521 l 1
 215 648 l 1
EndSplineSet
EndChar
StartChar: ocircumflex
Encoding: 153 244 135
Width: 474
Flags: W
Fore
265 125 m 2
 258 90 227 71 194 71 c 0
 161 71 138 90 146 125 c 2
 197 367 l 2
 205 402 237 430 270 430 c 0
 303 430 324 402 317 367 c 2
 265 125 l 2
312 509 m 2
 270 509 l 2
 171 509 73 429 52 329 c 2
 20 181 l 2
 -1 81 63 1 162 1 c 2
 204 1 l 2
 304 1 399 72 420 172 c 2
 454 328 l 2
 475 427 412 509 312 509 c 2
264 662 m 1
 324 662 l 1
 354 551 l 1
 295 551 l 1
 281 601 l 1
 246 551 l 1
 187 551 l 1
 264 662 l 1
EndSplineSet
EndChar
StartChar: odieresis
Encoding: 154 246 136
Width: 474
Flags: W
Fore
265 125 m 2
 258 90 227 71 194 71 c 0
 161 71 138 90 146 125 c 2
 197 367 l 2
 205 402 237 430 270 430 c 0
 303 430 324 402 317 367 c 2
 265 125 l 2
312 509 m 2
 270 509 l 2
 171 509 73 429 52 329 c 2
 20 181 l 2
 -1 81 63 1 162 1 c 2
 204 1 l 2
 304 1 399 72 420 172 c 2
 454 328 l 2
 475 427 412 509 312 509 c 2
176 679 m 2
 233 679 l 2
 243 679 249 671 247 661 c 2
 226 561 l 2
 224 551 214 543 204 543 c 2
 147 543 l 2
 137 543 131 551 133 561 c 2
 154 661 l 2
 156 671 166 679 176 679 c 2
365 679 m 2
 422 679 l 2
 432 679 438 671 436 661 c 2
 415 561 l 2
 413 551 403 543 393 543 c 2
 336 543 l 2
 326 543 320 551 322 561 c 2
 343 661 l 2
 345 671 355 679 365 679 c 2
EndSplineSet
EndChar
StartChar: otilde
Encoding: 155 245 137
Width: 474
Flags: W
Fore
265 125 m 2
 258 90 227 71 194 71 c 0
 161 71 138 90 146 125 c 2
 197 367 l 2
 205 402 237 430 270 430 c 0
 303 430 324 402 317 367 c 2
 265 125 l 2
312 509 m 2
 270 509 l 2
 171 509 73 429 52 329 c 2
 20 181 l 2
 -1 81 63 1 162 1 c 2
 204 1 l 2
 304 1 399 72 420 172 c 2
 454 328 l 2
 475 427 412 509 312 509 c 2
EndSplineSet
EndChar
StartChar: uacute
Encoding: 156 250 138
Width: 492
Flags: W
Fore
195 1 m 2
 153 1 l 2
 54 1 9 84 30 183 c 2
 99 509 l 1
 244 509 l 1
 167 144 l 2
 159 109 180 81 213 81 c 0
 246 81 278 109 285 144 c 2
 363 509 l 1
 501 509 l 1
 393 3 l 1
 282 3 l 1
 285 56 l 1
 263 29 216 1 195 1 c 2
370 648 m 1
 294 666 l 1
 191 539 l 1
 268 521 l 1
 370 648 l 1
EndSplineSet
EndChar
StartChar: ugrave
Encoding: 157 249 139
Width: 492
Flags: W
Fore
195 1 m 2
 153 1 l 2
 54 1 9 84 30 183 c 2
 99 509 l 1
 244 509 l 1
 167 144 l 2
 159 109 180 81 213 81 c 0
 246 81 278 109 285 144 c 2
 363 509 l 1
 501 509 l 1
 393 3 l 1
 282 3 l 1
 285 56 l 1
 263 29 216 1 195 1 c 2
215 648 m 1
 299 666 l 1
 347 539 l 1
 263 521 l 1
 215 648 l 1
EndSplineSet
EndChar
StartChar: ucircumflex
Encoding: 158 251 140
Width: 481
Flags: W
Fore
264 662 m 1
 324 662 l 1
 354 551 l 1
 295 551 l 1
 281 601 l 1
 246 551 l 1
 187 551 l 1
 264 662 l 1
195 1 m 2
 153 1 l 2
 54 1 9 84 30 183 c 2
 99 509 l 1
 244 509 l 1
 167 144 l 2
 159 109 180 81 213 81 c 0
 246 81 278 109 285 144 c 2
 363 509 l 1
 501 509 l 1
 393 3 l 1
 282 3 l 1
 285 56 l 1
 263 29 216 1 195 1 c 2
EndSplineSet
EndChar
StartChar: udieresis
Encoding: 159 252 141
Width: 492
Flags: W
Fore
195 1 m 2
 153 1 l 2
 54 1 9 84 30 183 c 2
 99 509 l 1
 244 509 l 1
 167 144 l 2
 159 109 180 81 213 81 c 0
 246 81 278 109 285 144 c 2
 363 509 l 1
 501 509 l 1
 393 3 l 1
 282 3 l 1
 285 56 l 1
 263 29 216 1 195 1 c 2
194 679 m 2
 251 679 l 2
 261 679 267 671 265 661 c 2
 244 561 l 2
 242 551 232 543 222 543 c 2
 165 543 l 2
 155 543 149 551 151 561 c 2
 172 661 l 2
 174 671 184 679 194 679 c 2
383 679 m 2
 440 679 l 2
 450 679 456 671 454 661 c 2
 433 561 l 2
 431 551 421 543 411 543 c 2
 354 543 l 2
 344 543 338 551 340 561 c 2
 361 661 l 2
 363 671 373 679 383 679 c 2
EndSplineSet
EndChar
StartChar: dagger
Encoding: 160 8224 142
Width: 225
Flags: MW
HStem: 448 231<66 97 58 107>
Fore
66 679 m 1
 107 679 l 1
 119 733 l 1
 158 733 l 1
 147 679 l 1
 191 679 l 1
 183 643 l 1
 139 643 l 1
 97 448 l 1
 58 448 l 1
 99 643 l 1
 58 643 l 1
 66 679 l 1
EndSplineSet
EndChar
StartChar: degree
Encoding: 161 176 143
Width: 450
Flags: MW
HStem: 436 54<172.5 207 172.5 211.5> 615 50G<199 233>
VStem: 87 52 266 55G
Fore
319 551 m 0
 305 488 243 436 180 436 c 0
 117 436 77 488 90 551 c 0
 103 614 165 665 229 665 c 0
 292 665 332 614 319 551 c 0
265 553 m 0
 272 587 250 615 216 615 c 0
 182 615 148 587 141 553 c 0
 133 518 155 490 190 490 c 0
 224 490 258 518 265 553 c 0
EndSplineSet
EndChar
StartChar: cent
Encoding: 162 162 144
Width: 500
Flags: MW
HStem: 0 226<222 439> 276 233G<330 448>
Fore
237 417 m 1
 219 406 195 387 191 367 c 2
 139 124 l 2
 135 104 152 88 165 80 c 1
 237 417 l 1
285 124 m 2
 307 226 l 1
 439 226 l 1
 427 171 l 2
 407 76 317 6 222 0 c 1
 203 -88 l 1
 130 -88 l 1
 149 2 l 1
 62 13 8 88 27 180 c 2
 59 329 l 2
 78 421 164 494 256 505 c 1
 289 663 l 1
 363 663 l 1
 330 509 l 1
 424 503 481 425 461 329 c 2
 448 276 l 1
 318 277 l 1
 337 367 l 2
 341 388 324 406 311 417 c 1
 239 80 l 1
 257 89 281 103 285 124 c 2
EndSplineSet
EndChar
StartChar: sterling
Encoding: 163 163 145
Width: 500
Flags: MW
HStem: 1 88<-17 2 -17 122 -35 2 139 141 141 353> 360 72G<54 86 38 101 239 402> 488 219G<344 367 367 416.5 331 482 344 344>
VStem: 367 129G
Fore
-17 89 m 1
 2 89 l 1
 44 172 76 249 86 360 c 1
 38 360 l 1
 54 432 l 1
 101 432 l 1
 125 544 l 2
 153 636 237 707 331 707 c 2
 367 707 l 2
 466 707 512 627 490 527 c 2
 482 488 l 1
 344 488 l 1
 361 565 l 2
 368 600 374 627 341 628 c 2
 322 628 l 2
 290 629 275 600 267 565 c 2
 239 432 l 1
 417 432 l 1
 402 360 l 1
 224 360 l 1
 203 257 167 147 139 89 c 1
 141 89 l 1
 372 89 l 1
 353 1 l 1
 122 1 l 1
 -35 1 l 1
 -17 89 l 1
EndSplineSet
EndChar
StartChar: section
Encoding: 164 167 146
Width: 475
Flags: MW
HStem: -11 151 527 56G<284 299>
VStem: 115 112 325 103G
Fore
340 200 m 1
 360 183 372 158 363 119 c 0
 343 23 271 -11 192 -11 c 2
 158 -11 l 2
 78 -11 26 47 43 126 c 2
 48 141 l 1
 163 141 l 1
 151 89 l 2
 145 61 163 45 190 45 c 0
 216 45 241 61 247 89 c 0
 249 101 255 124 248 131 c 0
 206 179 56 177 78 281 c 0
 89 329 112 362 148 382 c 1
 123 399 108 423 117 461 c 0
 134 544 192 583 284 583 c 2
 318 583 l 2
 397 583 441 519 424 439 c 1
 419 427 l 1
 312 427 l 1
 323 477 l 2
 329 505 312 527 286 527 c 0
 259 527 233 505 227 477 c 0
 209 392 431 439 402 299 c 0
 392 252 370 220 340 200 c 1
285 269 m 0
 288 281 293 304 286 311 c 0
 274 325 253 335 230 344 c 1
 210 337 193 318 189 297 c 0
 181 260 219 248 262 235 c 1
 273 242 282 253 285 269 c 0
EndSplineSet
EndChar
StartChar: bullet
Encoding: 165 8226 147
Width: 360
Flags: MW
HStem: 195 256G
Fore
167 451 m 2
 246 451 l 2
 286 451 312 419 303 379 c 2
 279 266 l 2
 271 227 232 194 192 194 c 2
 113 194 l 2
 73 194 48 227 56 266 c 2
 80 379 l 2
 88 419 127 451 167 451 c 2
EndSplineSet
EndChar
StartChar: germandbls
Encoding: 167 223 148
Width: 656
Flags: MW
HStem: -8 70<271.5 377.5 344.5 363> 620 79G
VStem: 174 138 481 129G
Fore
432 116 m 0
 435 131 443 160 434 169 c 0
 381 229 194 226 222 356 c 0
 242 452 306 502 406 508 c 1
 417 556 l 2
 425 591 377 619 344 619 c 0
 311 619 256 596 248 561 c 2
 129 1 l 1
 -8 1 l 1
 102 519 l 2
 133 665 265 699 362 699 c 0
 460 699 559 645 533 546 c 2
 522 502 l 1
 589 480 623 411 606 329 c 1
 600 314 l 1
 466 314 l 1
 479 376 l 2
 487 411 466 439 433 439 c 0
 400 439 367 411 360 376 c 0
 337 270 615 329 578 154 c 0
 553 34 463 -8 363 -8 c 2
 321 -8 l 2
 222 -8 156 63 177 163 c 1
 184 181 l 1
 327 181 l 1
 313 116 l 2
 305 81 328 62 361 62 c 0
 394 62 425 81 432 116 c 0
EndSplineSet
EndChar
StartChar: registered
Encoding: 168 174 149
Width: 522
Flags: MW
HStem: 64 71<141 158 158 181 141 239> 361 35<234 250 227 274> 494 40G<255 263 263 295 255 255> 635 72G
VStem: 12 78 443 78G
Fore
313 365 m 1
 349 239 l 1
 275 239 l 1
 250 361 l 1
 227 361 l 1
 201 240 l 1
 132 239 l 1
 194 534 l 1
 263 534 l 1
 316 534 l 2
 366 534 397 493 388 443 c 2
 387 438 l 2
 380 400 349 375 313 365 c 1
311 423 m 2
 319 463 l 2
 323 480 311 494 295 494 c 2
 255 494 l 1
 234 396 l 1
 274 396 l 2
 290 396 307 405 311 423 c 2
456 244 m 2
 435 144 338 64 239 64 c 2
 158 64 l 2
 58 64 -5 144 16 244 c 2
 76 527 l 2
 97 627 195 707 294 707 c 2
 375 707 l 2
 474 707 538 627 517 527 c 2
 456 244 l 2
393 279 m 2
 438 492 l 2
 455 571 431 636 352 636 c 2
 287 636 l 2
 208 636 157 571 140 492 c 2
 94 279 l 2
 78 200 101 135 181 135 c 2
 246 136 l 2
 325 136 376 200 393 279 c 2
EndSplineSet
EndChar
StartChar: copyright
Encoding: 169 169 150
Width: 522
Flags: MW
HStem: 64 71<141 158 158 181 141 239> 243 43<234 256 216 258> 488 40G<299 307.5> 635 72G
VStem: 12 78 443 78G
Fore
456 244 m 2
 435 144 338 64 239 64 c 2
 158 64 l 2
 58 64 -5 144 16 244 c 2
 76 527 l 2
 97 627 195 707 294 707 c 2
 375 707 l 2
 474 707 538 627 517 527 c 2
 456 244 l 2
393 279 m 2
 438 492 l 2
 455 571 431 636 352 636 c 2
 287 636 l 2
 208 636 157 571 140 492 c 2
 94 279 l 2
 78 200 101 135 181 135 c 2
 246 136 l 2
 325 136 376 200 393 279 c 2
365 333 m 2
 355 283 306 243 256 243 c 2
 216 243 l 2
 166 242 134 283 145 333 c 2
 167 438 l 2
 178 488 227 528 276 528 c 2
 317 528 l 2
 366 528 398 488 388 438 c 2
 383 419 l 1
 315 419 l 1
 323 457 l 2
 327 475 316 488 299 488 c 2
 277 489 l 2
 260 489 244 475 240 457 c 2
 210 313 l 2
 206 296 217 287 234 286 c 2
 258 286 l 2
 274 286 289 296 292 313 c 2
 303 365 l 1
 372 365 l 1
 365 333 l 2
EndSplineSet
EndChar
StartChar: trademark
Encoding: 170 8482 151
Width: 467
Flags: MW
HStem: 506 174<114 215 114 215 199 215 215 215 215 231 266 266 266 267 215 302 215 334>
Fore
211 662 m 1
 181 662 l 1
 148 506 l 1
 114 506 l 1
 147 662 l 1
 118 662 l 1
 121 679 l 1
 215 680 l 1
 211 662 l 1
250 597 m 1
 231 506 l 1
 199 506 l 1
 236 680 l 1
 267 680 l 1
 284 592 l 1
 283 589 l 1
 285 589 l 1
 286 592 l 1
 340 680 l 1
 371 680 l 1
 334 506 l 1
 302 506 l 1
 321 597 l 1
 320 597 l 1
 320 594 l 1
 270 511 l 1
 267 506 l 1
 266 506 l 1
 266 511 l 1
 251 595 l 1
 251 597 l 1
 250 597 l 1
EndSplineSet
EndChar
StartChar: acute
Encoding: 171 180 152
Width: 488
Flags: W
Fore
368 639 m 1
 292 657 l 1
 189 530 l 1
 266 512 l 1
 368 639 l 1
EndSplineSet
EndChar
StartChar: dieresis
Encoding: 172 168 153
Width: 450
Flags: W
Fore
167 679 m 2
 224 679 l 2
 234 679 240 671 238 661 c 2
 217 561 l 2
 215 551 205 543 195 543 c 2
 138 543 l 2
 128 543 122 551 124 561 c 2
 145 661 l 2
 147 671 157 679 167 679 c 2
356 679 m 2
 413 679 l 2
 423 679 429 671 427 661 c 2
 406 561 l 2
 404 551 394 543 384 543 c 2
 327 543 l 2
 317 543 311 551 313 561 c 2
 334 661 l 2
 336 671 346 679 356 679 c 2
EndSplineSet
EndChar
StartChar: notequal
Encoding: 173 8800 154
Width: 500
Flags: MW
HStem: 217 70<42 133 27 172 42 203 242 371> 361 70G<73 213 58 252 73 284 323 401>
Fore
37 44 m 1
 133 217 l 1
 27 217 l 1
 42 287 l 1
 172 287 l 1
 213 361 l 1
 58 361 l 1
 73 431 l 1
 252 431 l 1
 328 568 l 1
 399 568 l 1
 323 431 l 1
 416 431 l 1
 401 361 l 1
 284 361 l 1
 242 287 l 1
 386 287 l 1
 371 217 l 1
 203 217 l 1
 107 44 l 1
 37 44 l 1
EndSplineSet
EndChar
StartChar: AE
Encoding: 174 198 155
Width: 712
Flags: MW
HStem: 1 88<332 685 489 667> 153 70<160 273 160 276 128 273> 361 70G<562 741 547 756> 471 224G<259 279 259 259>
VStem: 273 133<223 350>
Fore
816 697 m 1
 800 626 l 1
 603 626 l 1
 562 431 l 1
 756 431 l 1
 741 361 l 1
 547 361 l 1
 489 89 l 1
 685 89 l 1
 667 1 l 1
 418 1 l 1
 332 1 l 1
 281 1 l 1
 276 153 l 1
 128 153 l 1
 58 1 l 1
 -62 1 l 1
 257 695 l 1
 394 695 l 1
 406 350 l 1
 480 697 l 1
 816 697 l 1
279 471 m 1
 259 471 l 1
 247 432 l 1
 160 223 l 1
 273 223 l 1
 275 433 l 1
 279 471 l 1
EndSplineSet
EndChar
StartChar: Oslash
Encoding: 175 216 156
Width: 500
Flags: W
Fore
303 134 m 2
 295 99 267 79 234 79 c 2
 186 79 l 2
 153 79 130 99 138 134 c 2
 229 565 l 2
 237 600 269 628 302 628 c 2
 348 628 l 2
 381 628 402 600 395 565 c 2
 303 134 l 2
449 172 m 2
 524 527 l 2
 545 627 482 707 382 707 c 2
 302 707 l 2
 202 707 105 627 84 527 c 2
 8 172 l 2
 -13 72 50 -8 150 -8 c 2
 231 -8 l 2
 330 -8 427 72 449 172 c 2
EndSplineSet
EndChar
StartChar: infinity
Encoding: 176 8734 157
Width: 500
Flags: MW
HStem: 436 54<140 165 316.5 347> 615 50G<166.5 199 351.5 373.5>
VStem: 55 52 407 55G
Fore
229 540 m 1
 229 544 232 547 233 551 c 0
 234 555 233 560 234 564 c 1
 235 593 214 615 184 615 c 0
 149 615 116 587 108 553 c 0
 101 518 123 490 157 490 c 0
 187 490 217 512 229 540 c 1
459 551 m 0
 446 488 384 436 320 436 c 0
 286 436 258 452 242 476 c 1
 216 452 182 436 148 436 c 0
 84 436 44 488 58 551 c 0
 71 614 133 665 196 665 c 0
 231 665 258 650 274 626 c 1
 300 650 334 665 369 665 c 0
 432 665 472 614 459 551 c 0
405 553 m 0
 413 587 391 615 356 615 c 0
 329 615 302 597 289 573 c 1
 289 566 283 558 282 551 c 0
 280 544 283 538 280 531 c 1
 284 507 303 490 330 490 c 0
 364 490 398 518 405 553 c 0
EndSplineSet
EndChar
StartChar: plusminus
Encoding: 177 177 158
Width: 500
Flags: MW
HStem: 91 70<65 394 50 409>
Fore
65 161 m 1
 409 161 l 1
 394 91 l 1
 50 91 l 1
 65 161 l 1
236 215 m 1
 267 361 l 1
 130 361 l 1
 145 431 l 1
 282 431 l 1
 313 577 l 1
 383 577 l 1
 352 431 l 1
 489 431 l 1
 474 361 l 1
 337 361 l 1
 306 215 l 1
 236 215 l 1
EndSplineSet
EndChar
StartChar: lessequal
Encoding: 178 8804 159
Width: 500
Flags: MW
HStem: 91 70<53 382 38 397>
Fore
53 161 m 1
 397 161 l 1
 382 91 l 1
 38 91 l 1
 53 161 l 1
86 405 m 1
 337 614 l 1
 475 614 l 1
 223 405 l 1
 382 178 l 1
 244 178 l 1
 86 405 l 1
EndSplineSet
EndChar
StartChar: greaterequal
Encoding: 179 8805 160
Width: 500
Flags: MW
HStem: 91 70<45 374 30 389>
Fore
45 161 m 1
 389 161 l 1
 374 91 l 1
 30 91 l 1
 45 161 l 1
423 405 m 1
 260 614 l 1
 122 614 l 1
 285 405 l 1
 30 178 l 1
 167 178 l 1
 423 405 l 1
EndSplineSet
EndChar
StartChar: yen
Encoding: 180 165 161
Width: 500
Flags: MW
HStem: 90 85<52 119 34 137 274 348> 216 85<79 146 61 164 302 375> 677 20G<76 214 214 214 419 556 556 556>
Fore
348 90 m 1
 256 90 l 1
 237 1 l 1
 99 1 l 1
 119 90 l 1
 34 90 l 1
 52 175 l 1
 137 175 l 1
 146 216 l 1
 61 216 l 1
 79 301 l 1
 164 301 l 1
 169 326 l 1
 76 697 l 1
 214 697 l 1
 265 482 l 1
 262 461 l 1
 269 461 l 1
 275 480 l 1
 419 697 l 1
 556 697 l 1
 307 326 l 1
 302 301 l 1
 393 301 l 1
 375 216 l 1
 283 216 l 1
 274 175 l 1
 366 175 l 1
 348 90 l 1
EndSplineSet
EndChar
StartChar: mu
Encoding: 181 956 162
Width: 492
Flags: MW
HStem: -193 20 1 79 489 20G<120 265 265 265 383 521 521 521>
VStem: 301 118G
Fore
116 -193 m 1
 -30 -193 l 1
 19 41 70 275 120 509 c 1
 265 509 l 1
 200 203 l 1
 200 203 l 1
 186 134 l 2
 183 104 203 81 233 81 c 0
 266 81 299 109 306 144 c 2
 383 509 l 1
 521 509 l 1
 425 58 l 2
 414 7 419 -50 433 -87 c 1
 323 -87 l 1
 300 -52 297 7 305 56 c 1
 284 29 236 1 216 1 c 2
 191 1 l 2
 187 1 164 6 163 29 c 1
 116 -193 l 1
EndSplineSet
EndChar
StartChar: summation
Encoding: 183 8721 164
Width: 500
Flags: MW
HStem: 1 88<153 331> 626 71G<267 466 267 267>
Fore
153 89 m 1
 349 89 l 1
 331 1 l 1
 -4 1 l 1
 14 86 l 1
 249 343 l 1
 255 370 l 1
 130 625 l 1
 145 697 l 1
 482 697 l 1
 466 626 l 1
 267 626 l 1
 393 370 l 1
 386 343 l 1
 153 89 l 1
EndSplineSet
EndChar
StartChar: product
Encoding: 184 8719 165
Width: 500
Flags: MW
HStem: 1 20 626 71G<243 385 243 243>
Fore
385 626 m 1
 243 626 l 1
 110 1 l 1
 -27 1 l 1
 121 697 l 1
 538 697 538 697 538 697 c 1
 390 1 l 1
 253 1 l 1
 385 626 l 1
EndSplineSet
EndChar
StartChar: pi
Encoding: 185 960 166
Width: 500
Flags: MW
HStem: 1 20 428 81G<219 338 219 219>
Fore
99 509 m 1
 501 509 l 1
 482 416 502 512 392 1 c 1
 248 2 l 1
 338 428 l 1
 219 428 l 1
 128 2 l 1
 -9 1 l 1
 99 509 l 1
EndSplineSet
EndChar
StartChar: integral
Encoding: 186 8747 167
Width: 500
Flags: MW
HStem: -123 77 620 79G
VStem: 432 96G
Fore
87 13 m 1
 194 519 l 2
 225 665 312 699 410 699 c 0
 507 699 547 645 518 546 c 2
 510 520 l 1
 420 520 l 1
 429 556 l 2
 437 591 424 619 391 619 c 0
 358 619 348 596 341 561 c 2
 227 28 l 2
 203 -89 183 -117 57 -123 c 0
 45 -124 32 -123 18 -124 c 1
 34 -46 l 1
 67 -46 79 -22 86 13 c 1
 87 13 l 1
EndSplineSet
EndChar
StartChar: Omega
Encoding: 189 937 169
Width: 500
Flags: MW
HStem: 0 20 687 20G<234.5 284 284 365>
Fore
189 189 m 1
 156 189 136 209 143 244 c 2
 212 565 l 2
 219 600 252 628 285 628 c 2
 330 628 l 2
 363 628 385 600 377 565 c 2
 309 244 l 2
 301 209 272 189 239 189 c 1
 199 0 l 1
 388 0 l 1
 404 76 l 1
 285 76 l 1
 292 110 l 1
 370 133 437 201 454 282 c 2
 507 527 l 2
 528 627 464 707 365 707 c 2
 284 707 l 2
 185 707 87 627 66 527 c 2
 14 282 l 2
 -3 201 35 133 103 110 c 1
 95 76 l 1
 -20 76 l 1
 -36 0 l 1
 149 0 l 1
 189 189 l 1
EndSplineSet
EndChar
StartChar: ae
Encoding: 190 230 170
Width: 779
Flags: MW
HStem: 1 216 256 63G 430 79G<561 577.5>
VStem: 14 136 609 137G
Fore
152 136 m 0
 145 101 160 76 200 76 c 0
 231 75 271 104 278 139 c 2
 301 248 l 1
 266 243 239 236 235 235 c 0
 207 228 169 214 162 180 c 0
 161 177 159 170 152 136 c 0
721 216 m 1
 713 181 l 2
 692 81 594 1 495 1 c 2
 453 1 l 2
 407 1 369 18 343 46 c 1
 309 19 248 -6 203 -6 c 0
 200 -6 153 -6 150 -6 c 0
 72 -6 -5 40 18 135 c 2
 25 164 l 2
 39 220 104 291 248 303 c 1
 253 305 280 307 316 311 c 1
 327 361 l 2
 334 396 314 424 283 424 c 0
 252 424 220 396 212 361 c 2
 201 312 l 1
 67 312 l 1
 71 329 l 2
 94 429 181 509 280 509 c 2
 323 509 l 2
 368 509 406 492 432 464 c 1
 470 492 515 509 561 509 c 2
 603 509 l 2
 702 509 763 429 742 329 c 2
 726 257 l 1
 464 257 l 1
 436 125 l 2
 429 90 452 71 485 71 c 0
 518 71 548 90 556 125 c 2
 575 216 l 1
 721 216 l 1
597 319 m 1
 607 367 l 2
 615 402 594 430 561 430 c 0
 528 430 495 402 488 367 c 2
 478 319 l 1
 597 319 l 1
EndSplineSet
EndChar
StartChar: oslash
Encoding: 191 248 171
Width: 474
Flags: W
Fore
265 125 m 2
 258 90 227 71 194 71 c 0
 161 71 138 90 146 125 c 2
 197 367 l 2
 205 402 237 430 270 430 c 0
 303 430 324 402 317 367 c 2
 265 125 l 2
312 509 m 2
 270 509 l 2
 170 509 73 429 52 329 c 2
 20 181 l 2
 -1 81 62 1 162 1 c 2
 204 1 l 2
 303 1 399 72 420 172 c 2
 453 328 l 2
 475 427 411 509 312 509 c 2
EndSplineSet
EndChar
StartChar: questiondown
Encoding: 192 191 172
Width: 450
Flags: W
Fore
190 393 m 1
 214 506 l 1
 351 506 l 1
 312 322 l 1
 245 322 l 1
 216 320 l 2
 182 318 150 292 143 257 c 2
 118 136 l 2
 111 101 131 71 164 73 c 2
 174 73 l 2
 207 75 240 101 247 136 c 2
 264 212 l 1
 401 212 l 1
 393 174 l 2
 372 74 274 -6 175 -6 c 2
 130 -6 l 2
 31 -6 -24 74 -2 174 c 2
 9 228 l 2
 30 327 90 393 190 393 c 1
346 562 m 2
 245 562 l 2
 235 562 228 570 230 580 c 2
 254 689 l 2
 256 699 265 707 275 707 c 2
 377 707 l 2
 387 707 393 699 391 689 c 2
 368 580 l 2
 366 570 356 562 346 562 c 2
EndSplineSet
EndChar
StartChar: exclamdown
Encoding: 193 161 173
Width: 236
Flags: W
Fore
87 -6 m 1
 -51 -6 l 1
 59 510 l 1
 196 510 l 1
 87 -6 l 1
185 552 m 2
 84 552 l 2
 74 552 67 560 69 570 c 2
 93 679 l 2
 95 689 104 697 114 697 c 2
 216 697 l 2
 226 697 232 689 230 679 c 2
 207 570 l 2
 205 560 195 552 185 552 c 2
EndSplineSet
EndChar
StartChar: logicalnot
Encoding: 194 172 174
Width: 500
Flags: MW
HStem: 361 70G<74 314 59 417>
Fore
273 168 m 1
 314 361 l 1
 59 361 l 1
 74 431 l 1
 417 431 l 1
 361 168 l 1
 273 168 l 1
EndSplineSet
EndChar
StartChar: florin
Encoding: 196 402 175
Width: 500
Flags: MW
HStem: 419 81G 620 79G
VStem: 429 95G
Fore
182 -179 m 1
 44 -179 l 1
 171 418 l 1
 133 418 l 1
 150 500 l 1
 188 500 l 1
 192 519 l 2
 223 665 310 699 408 699 c 0
 505 699 541 645 516 546 c 2
 508 520 l 1
 418 520 l 1
 427 556 l 2
 435 591 422 619 389 619 c 0
 356 619 346 596 339 561 c 2
 326 500 l 1
 407 500 l 1
 390 418 l 1
 309 418 l 1
 182 -179 l 1
EndSplineSet
EndChar
StartChar: approxequal
Encoding: 197 8776 176
Width: 500
Flags: MW
HStem: 170 101 350 101G
Fore
122 424 m 1
 137 431 157 450 212 451 c 0
 282 452 292 397 334 397 c 0
 359 397 390 411 418 426 c 1
 397 325 l 1
 374 313 356 296 310 296 c 0
 246 296 234 350 190 350 c 0
 146 350 141 344 100 323 c 1
 122 424 l 1
83 244 m 1
 98 251 119 270 174 271 c 0
 244 272 254 217 295 217 c 0
 321 217 352 231 380 246 c 1
 358 145 l 1
 336 133 317 116 271 116 c 0
 207 116 196 170 151 170 c 0
 107 170 102 164 62 143 c 1
 83 244 l 1
EndSplineSet
EndChar
StartChar: guillemotleft
Encoding: 199 171 178
Width: 540
Flags: W
Fore
2 279 m 1
 208 488 l 1
 346 488 l 1
 140 279 l 1
 253 52 l 1
 116 52 l 1
 2 279 l 1
236 279 m 1
 442 488 l 1
 580 488 l 1
 374 279 l 1
 487 52 l 1
 350 52 l 1
 236 279 l 1
EndSplineSet
EndChar
StartChar: guillemotright
Encoding: 200 187 179
Width: 540
Flags: W
Fore
542 279 m 1
 424 488 l 1
 286 488 l 1
 404 279 l 1
 194 52 l 1
 331 52 l 1
 542 279 l 1
308 279 m 1
 190 488 l 1
 52 488 l 1
 170 279 l 1
 -40 52 l 1
 97 52 l 1
 308 279 l 1
EndSplineSet
EndChar
StartChar: ellipsis
Encoding: 201 8230 180
Width: 540
Flags: MW
HStem: -6 145G<19 156 54 125 54 204 234 305 414 485>
Fore
54 139 m 2
 156 139 l 2
 166 139 172 131 170 121 c 2
 147 12 l 2
 145 2 135 -6 125 -6 c 2
 24 -6 l 2
 14 -6 7 2 9 12 c 2
 33 121 l 2
 35 131 44 139 54 139 c 2
234 139 m 2
 336 139 l 2
 346 139 352 131 350 121 c 2
 327 12 l 2
 325 2 315 -6 305 -6 c 2
 204 -6 l 2
 194 -6 187 2 189 12 c 2
 213 121 l 2
 215 131 224 139 234 139 c 2
414 139 m 2
 516 139 l 2
 526 139 532 131 530 121 c 2
 507 12 l 2
 505 2 495 -6 485 -6 c 2
 384 -6 l 2
 374 -6 367 2 369 12 c 2
 393 121 l 2
 395 131 404 139 414 139 c 2
EndSplineSet
EndChar
StartChar: Agrave
Encoding: 203 192 182
Width: 488
Flags: W
Fore
384 695 m 1
 408 1 l 1
 271 1 l 1
 266 153 l 1
 118 153 l 1
 48 1 l 1
 -72 1 l 1
 247 695 l 1
 384 695 l 1
150 223 m 1
 263 223 l 1
 265 433 l 1
 269 471 l 1
 249 471 l 1
 237 432 l 1
 150 223 l 1
257 846 m 1
 341 864 l 1
 389 737 l 1
 305 719 l 1
 257 846 l 1
EndSplineSet
EndChar
StartChar: Atilde
Encoding: 204 195 183
Width: 488
Flags: W
Fore
384 695 m 1
 408 1 l 1
 271 1 l 1
 266 153 l 1
 117 153 l 1
 47 1 l 1
 -72 1 l 1
 247 695 l 1
 384 695 l 1
150 223 m 1
 263 223 l 1
 265 433 l 1
 269 471 l 1
 248 471 l 1
 237 432 l 1
 150 223 l 1
242 847 m 1
 257 854 277 873 332 874 c 0
 403 875 413 820 454 820 c 0
 480 820 510 834 539 849 c 1
 517 748 l 1
 495 736 476 719 430 719 c 0
 366 719 354 773 310 773 c 0
 266 773 261 767 221 746 c 1
 242 847 l 1
EndSplineSet
EndChar
StartChar: Otilde
Encoding: 205 213 184
Width: 528
Flags: W
Fore
303 134 m 2
 295 99 267 79 234 79 c 2
 186 79 l 2
 153 79 130 99 138 134 c 2
 229 565 l 2
 237 600 269 628 302 628 c 2
 348 628 l 2
 381 628 402 600 395 565 c 2
 303 134 l 2
449 172 m 2
 524 527 l 2
 545 627 482 707 382 707 c 2
 302 707 l 2
 202 707 105 627 84 527 c 2
 8 172 l 2
 -13 72 50 -8 150 -8 c 2
 231 -8 l 2
 330 -8 427 72 449 172 c 2
269 847 m 1
 284 854 305 873 360 874 c 0
 430 875 440 820 481 820 c 0
 507 820 537 834 566 849 c 1
 544 748 l 1
 522 736 503 719 457 719 c 0
 393 719 381 773 337 773 c 0
 293 773 288 767 248 746 c 1
 269 847 l 1
EndSplineSet
EndChar
StartChar: OE
Encoding: 206 338 185
Width: 845
Flags: MW
HStem: -8 86 361 70G<632 811 617 826> 627 80G
VStem: -6 132 386 132G
Fore
293 134 m 2
 385 565 l 2
 392 600 371 627 338 628 c 2
 292 628 l 2
 260 628 227 600 219 565 c 2
 128 134 l 2
 120 99 143 80 176 79 c 2
 224 79 l 2
 257 78 286 99 293 134 c 2
870 626 m 1
 673 626 l 1
 632 431 l 1
 826 431 l 1
 811 361 l 1
 617 361 l 1
 559 89 l 1
 755 89 l 1
 737 1 l 1
 402 1 l 1
 435 158 l 1
 409 65 316 -7 221 -8 c 2
 140 -8 l 2
 40 -9 -23 72 -2 172 c 2
 74 527 l 2
 95 627 193 707 292 707 c 2
 373 707 l 2
 467 707 530 634 517 541 c 1
 550 697 l 1
 886 697 l 1
 870 626 l 1
EndSplineSet
EndChar
StartChar: oe
Encoding: 207 339 186
Width: 846
Flags: MW
HStem: 1 216 256 63G 430 79G<281 297.5 651 667.5>
VStem: 27 128 699 137G
Fore
276 125 m 2
 328 367 l 2
 335 402 314 430 281 430 c 0
 248 430 216 402 208 367 c 2
 157 125 l 2
 149 90 172 71 205 71 c 0
 238 71 269 90 276 125 c 2
811 216 m 1
 803 181 l 2
 782 81 685 1 585 1 c 2
 543 1 l 2
 472 1 419 42 402 103 c 1
 362 41 289 1 215 1 c 2
 173 1 l 2
 74 1 10 81 31 181 c 2
 63 329 l 2
 84 429 182 509 281 509 c 2
 323 509 l 2
 396 509 449 465 464 403 c 1
 506 466 578 509 651 509 c 2
 693 509 l 2
 793 509 854 429 832 329 c 2
 817 257 l 1
 555 257 l 1
 527 125 l 2
 519 90 542 71 575 71 c 0
 608 71 639 90 646 125 c 2
 666 216 l 1
 811 216 l 1
688 319 m 1
 698 367 l 2
 705 402 684 430 651 430 c 0
 618 430 586 402 578 367 c 2
 568 319 l 1
 688 319 l 1
EndSplineSet
EndChar
StartChar: endash
Encoding: 208 8211 187
Width: 500
Flags: MW
HStem: 361 70G<53 382 38 397>
Fore
53 431 m 1
 397 431 l 1
 382 361 l 1
 38 361 l 1
 53 431 l 1
EndSplineSet
EndChar
StartChar: emdash
Encoding: 209 8212 188
Width: 1000
Flags: MW
HStem: 361 70G<117 806 102 821>
Fore
117 431 m 1
 821 431 l 1
 806 361 l 1
 102 361 l 1
 117 431 l 1
EndSplineSet
EndChar
StartChar: quotedblleft
Encoding: 210 8220 189
Width: 408
Flags: MW
HStem: 548 145<87 224 186 193 186 263 357 364>
Fore
164 778 m 1
 237 778 l 1
 186 693 l 1
 224 693 l 2
 234 693 240 685 238 675 c 2
 215 566 l 2
 213 556 203 548 193 548 c 2
 92 548 l 2
 82 548 75 556 77 566 c 2
 100 674 l 1
 101 675 l 1
 164 778 l 1
335 778 m 1
 408 778 l 1
 357 693 l 1
 395 693 l 2
 405 693 411 685 409 675 c 2
 386 566 l 2
 384 556 374 548 364 548 c 2
 263 548 l 2
 253 548 246 556 248 566 c 2
 271 674 l 1
 272 675 l 1
 335 778 l 1
EndSplineSet
EndChar
StartChar: quotedblright
Encoding: 211 8221 190
Width: 408
Flags: MW
HStem: 624 145G<105 242 140 148 140 281 311 319>
Fore
341 539 m 1
 268 539 l 1
 319 624 l 1
 281 624 l 2
 271 624 264 632 266 642 c 2
 290 751 l 2
 292 761 301 769 311 769 c 2
 413 769 l 2
 423 769 429 761 427 751 c 0
 400 622 404 643 404 642 c 1
 341 539 l 1
170 539 m 1
 97 539 l 1
 148 624 l 1
 110 624 l 2
 100 624 93 632 95 642 c 2
 119 751 l 2
 121 761 130 769 140 769 c 2
 242 769 l 2
 252 769 258 761 256 751 c 0
 229 622 233 643 233 642 c 1
 170 539 l 1
EndSplineSet
EndChar
StartChar: quoteleft
Encoding: 212 8216 191
Width: 236
Flags: MW
HStem: 548 145<87 224 186 193>
Fore
164 778 m 1
 237 778 l 1
 186 693 l 1
 224 693 l 2
 234 693 240 685 238 675 c 2
 215 566 l 2
 213 556 203 548 193 548 c 2
 92 548 l 2
 82 548 75 556 77 566 c 0
 105 694 100 674 101 675 c 2
 164 778 l 1
EndSplineSet
EndChar
StartChar: quoteright
Encoding: 213 8217 192
Width: 236
Flags: MW
HStem: 624 145G<105 242 140 148>
Fore
170 539 m 1
 97 539 l 1
 148 624 l 1
 110 624 l 2
 100 624 93 632 95 642 c 2
 119 751 l 2
 121 761 130 769 140 769 c 2
 242 769 l 2
 276 769 236 656 233 642 c 1
 170 539 l 1
EndSplineSet
EndChar
StartChar: divide
Encoding: 214 247 193
Width: 500
Flags: MW
HStem: 217 81<197 255 219 238> 360 71<94 420 79 435> 496 81G<256 314 278 297>
Fore
94 431 m 1
 435 431 l 1
 420 360 l 1
 79 360 l 1
 94 431 l 1
278 577 m 2
 314 577 l 2
 324 577 331 569 328 559 c 2
 319 514 l 2
 317 504 307 496 297 496 c 2
 261 496 l 2
 251 496 245 504 247 514 c 2
 256 559 l 2
 259 569 268 577 278 577 c 2
219 298 m 2
 255 298 l 2
 265 298 271 290 269 280 c 2
 260 235 l 2
 257 225 248 217 238 217 c 2
 202 217 l 2
 192 217 185 225 188 235 c 2
 197 280 l 2
 199 290 209 298 219 298 c 2
EndSplineSet
EndChar
StartChar: lozenge
Encoding: 215 9674 194
Width: 500
Flags: W
Fore
427 349 m 1
 196 158 l 1
 46 349 l 1
 277 539 l 1
 427 349 l 1
323 350 m 1
 256 435 l 1
 154 350 l 1
 220 265 l 1
 323 350 l 1
EndSplineSet
EndChar
StartChar: ydieresis
Encoding: 216 255 195
Width: 410
Flags: W
Fore
80 509 m 1
 226 509 l 1
 217 196 l 1
 215 186 l 1
 220 186 l 1
 222 196 l 1
 344 509 l 1
 481 509 l 1
 242 1 l 2
 194 -100 181 -142 147 -180 c 1
 83 -215 56 -206 -30 -203 c 1
 -5 -87 l 1
 68 -87 l 2
 80 -87 94 -82 103 -76 c 1
 111 -65 115 -56 116 -36 c 2
 116 1 l 1
 80 509 l 1
158 679 m 2
 214 679 l 2
 224 679 231 671 228 661 c 2
 207 561 l 2
 205 551 195 543 185 543 c 2
 129 543 l 2
 119 543 112 551 114 561 c 2
 136 661 l 2
 138 671 148 679 158 679 c 2
347 679 m 2
 403 679 l 2
 413 679 420 671 417 661 c 2
 396 561 l 2
 394 551 384 543 374 543 c 2
 318 543 l 2
 308 543 301 551 303 561 c 2
 325 661 l 2
 327 671 337 679 347 679 c 2
EndSplineSet
EndChar
StartChar: Ydieresis
Encoding: 217 376 196
Width: 493
Flags: W
Fore
76 697 m 1
 213 697 l 1
 265 482 l 1
 262 461 l 1
 278 461 l 1
 284 480 l 1
 428 697 l 1
 556 697 l 1
 306 326 l 1
 237 1 l 1
 99 1 l 1
 168 326 l 1
 76 697 l 1
223 859 m 2
 280 859 l 2
 290 859 296 851 294 841 c 2
 273 741 l 2
 271 731 261 723 251 723 c 2
 194 723 l 2
 184 723 178 731 180 741 c 2
 201 841 l 2
 203 851 213 859 223 859 c 2
412 859 m 2
 469 859 l 2
 479 859 485 851 483 841 c 2
 462 741 l 2
 460 731 450 723 440 723 c 2
 383 723 l 2
 373 723 367 731 369 741 c 2
 390 841 l 2
 392 851 402 859 412 859 c 2
EndSplineSet
EndChar
StartChar: fraction
Encoding: 218 8260 197
Width: 500
Flags: W
Fore
530 571 m 1
 436 652 l 1
 1 127 l 1
 94 46 l 1
 530 571 l 1
EndSplineSet
EndChar
StartChar: currency
Encoding: 219 164 198
Width: 500
Flags: MW
HStem: 1 88<177 355> 253 70<29 102 14 117 227 409> 406 70G<62 134 47 149 260 441> 572 71G<280 479 280 280>
Fore
62 476 m 1
 149 476 l 1
 185 643 l 1
 495 643 l 1
 479 572 l 1
 280 572 l 1
 260 476 l 1
 456 476 l 1
 441 406 l 1
 245 406 l 1
 227 323 l 1
 424 323 l 1
 409 253 l 1
 212 253 l 1
 177 89 l 1
 374 89 l 1
 355 1 l 1
 48 1 l 1
 102 253 l 1
 14 253 l 1
 29 323 l 1
 117 323 l 1
 134 406 l 1
 47 406 l 1
 62 476 l 1
EndSplineSet
EndChar
StartChar: guilsinglleft
Encoding: 220 8249 199
Width: 500
Flags: W
Fore
70 279 m 1
 276 488 l 1
 414 488 l 1
 208 279 l 1
 321 52 l 1
 184 52 l 1
 70 279 l 1
EndSplineSet
EndChar
StartChar: guilsinglright
Encoding: 221 8250 200
Width: 500
Flags: W
Fore
410 279 m 1
 292 488 l 1
 154 488 l 1
 272 279 l 1
 62 52 l 1
 199 52 l 1
 410 279 l 1
EndSplineSet
EndChar
StartChar: fi
Encoding: 222 64257 201
Width: 525
Flags: W
Fore
128 1 m 1
 -9 1 l 1
 80 418 l 1
 42 418 l 1
 59 500 l 1
 97 500 l 1
 101 519 l 2
 132 665 219 699 316 699 c 0
 414 699 450 645 424 546 c 2
 417 520 l 1
 327 520 l 1
 335 556 l 2
 343 591 331 619 298 619 c 0
 265 619 255 596 248 561 c 2
 234 500 l 1
 316 500 l 1
 298 418 l 1
 217 418 l 1
 128 1 l 1
395 499 m 1
 532 499 l 1
 427 1 l 1
 289 1 l 1
 395 499 l 1
EndSplineSet
EndChar
StartChar: fl
Encoding: 223 64258 202
Width: 516
Flags: MW
HStem: 1 20 419 81G 620 79G
Fore
407 697 m 1
 544 697 l 1
 396 1 l 1
 259 1 l 1
 375 548 l 2
 386 598 367 619 325 619 c 0
 292 619 255 596 248 561 c 2
 235 500 l 1
 316 500 l 1
 298 418 l 1
 217 418 l 1
 129 1 l 1
 -9 1 l 1
 80 418 l 1
 42 418 l 1
 59 500 l 1
 97 500 l 1
 101 519 l 2
 132 665 228 699 326 699 c 0
 356 699 386 680 400 666 c 1
 407 697 l 1
EndSplineSet
EndChar
StartChar: daggerdbl
Encoding: 224 8225 203
Width: 250
Flags: MW
HStem: 358 231<72 104 65 114> 642 37G
Fore
72 589 m 1
 114 589 l 1
 125 643 l 1
 84 643 l 1
 91 679 l 1
 133 679 l 1
 144 733 l 1
 184 733 l 1
 172 679 l 1
 217 679 l 1
 209 643 l 1
 165 643 l 1
 153 589 l 1
 197 589 l 1
 190 553 l 1
 145 553 l 1
 104 358 l 1
 65 358 l 1
 106 553 l 1
 64 553 l 1
 72 589 l 1
EndSplineSet
EndChar
StartChar: periodcentered
Encoding: 225 183 204
Width: 250
Flags: MW
HStem: 354 145G<58 195 93 164>
Fore
93 499 m 2
 195 499 l 2
 205 499 211 491 209 481 c 2
 186 372 l 2
 184 362 174 354 164 354 c 2
 63 354 l 2
 53 354 46 362 48 372 c 2
 72 481 l 2
 74 491 83 499 93 499 c 2
EndSplineSet
EndChar
StartChar: quotesinglbase
Encoding: 226 8218 205
Width: 250
Flags: MW
HStem: -6 145G<5 142 40 48>
Fore
70 -91 m 1
 -3 -91 l 1
 48 -6 l 1
 10 -6 l 2
 0 -6 -7 2 -5 12 c 2
 19 121 l 2
 21 131 30 139 40 139 c 2
 142 139 l 2
 152 139 158 131 156 121 c 0
 129 -8 133 13 133 12 c 1
 70 -91 l 1
EndSplineSet
EndChar
StartChar: quotedblbase
Encoding: 227 8222 206
Width: 400
Flags: MW
HStem: -6 145G<55 192 90 98 90 231 261 269>
Fore
291 -91 m 1
 218 -91 l 1
 269 -6 l 1
 231 -6 l 2
 221 -6 214 2 216 12 c 2
 240 121 l 2
 242 131 251 139 261 139 c 2
 363 139 l 2
 373 139 379 131 377 121 c 2
 354 13 l 1
 354 12 l 1
 291 -91 l 1
120 -91 m 1
 47 -91 l 1
 98 -6 l 1
 60 -6 l 2
 50 -6 43 2 45 12 c 2
 69 121 l 2
 71 131 80 139 90 139 c 2
 192 139 l 2
 202 139 208 131 206 121 c 2
 183 13 l 1
 183 12 l 1
 120 -91 l 1
EndSplineSet
EndChar
StartChar: perthousand
Encoding: 228 8240 207
Width: 1000
Flags: W
Fore
592 733 m 1
 454 733 l 1
 23 -26 l 1
 160 -26 l 1
 592 733 l 1
263 545 m 2
 259 527 244 518 228 518 c 0
 211 518 200 527 203 545 c 2
 225 648 l 2
 229 665 245 679 262 679 c 0
 278 679 289 665 285 648 c 2
 263 545 l 2
285 728 m 2
 264 728 l 2
 214 728 165 688 155 638 c 2
 139 564 l 2
 128 514 160 474 210 474 c 2
 231 474 l 2
 280 474 328 510 339 559 c 2
 355 637 l 2
 366 687 334 728 285 728 c 2
483 75 m 2
 480 57 464 48 448 48 c 0
 431 48 420 57 424 75 c 2
 445 178 l 2
 449 195 466 209 482 209 c 0
 499 209 509 195 505 178 c 2
 483 75 l 2
505 258 m 2
 484 258 l 2
 434 258 385 218 375 168 c 2
 359 94 l 2
 348 44 380 4 430 4 c 2
 451 4 l 2
 500 4 548 40 559 89 c 2
 576 167 l 2
 586 217 555 258 505 258 c 2
763 75 m 2
 760 57 744 48 728 48 c 0
 711 48 700 57 704 75 c 2
 725 178 l 2
 729 195 746 209 762 209 c 0
 779 209 789 195 785 178 c 2
 763 75 l 2
785 258 m 2
 764 258 l 2
 714 258 665 218 655 168 c 2
 639 94 l 2
 628 44 660 4 710 4 c 2
 731 4 l 2
 780 4 828 40 839 89 c 2
 856 167 l 2
 866 217 835 258 785 258 c 2
EndSplineSet
EndChar
StartChar: Acircumflex
Encoding: 229 194 208
Width: 488
Flags: W
Fore
384 695 m 1
 408 1 l 1
 271 1 l 1
 266 153 l 1
 117 153 l 1
 47 1 l 1
 -72 1 l 1
 247 695 l 1
 384 695 l 1
150 223 m 1
 263 223 l 1
 265 433 l 1
 269 471 l 1
 248 471 l 1
 237 432 l 1
 150 223 l 1
EndSplineSet
EndChar
StartChar: Ecircumflex
Encoding: 230 202 209
Width: 443
Flags: W
Fore
440 626 m 1
 243 626 l 1
 202 431 l 1
 396 431 l 1
 381 361 l 1
 187 361 l 1
 129 89 l 1
 325 89 l 1
 307 1 l 1
 -28 1 l 1
 120 697 l 1
 456 697 l 1
 440 626 l 1
EndSplineSet
EndChar
StartChar: Aacute
Encoding: 231 193 210
Width: 488
Flags: W
Fore
384 695 m 1
 408 1 l 1
 271 1 l 1
 266 153 l 1
 117 153 l 1
 47 1 l 1
 -72 1 l 1
 247 695 l 1
 384 695 l 1
150 223 m 1
 263 223 l 1
 265 433 l 1
 269 471 l 1
 248 471 l 1
 237 432 l 1
 150 223 l 1
412 846 m 1
 336 864 l 1
 233 737 l 1
 309 719 l 1
 412 846 l 1
EndSplineSet
EndChar
StartChar: Edieresis
Encoding: 232 203 211
Width: 443
Flags: W
Fore
440 626 m 1
 243 626 l 1
 202 431 l 1
 396 431 l 1
 381 361 l 1
 187 361 l 1
 129 89 l 1
 325 89 l 1
 307 1 l 1
 -28 1 l 1
 120 697 l 1
 456 697 l 1
 440 626 l 1
205 859 m 2
 262 859 l 2
 272 859 278 851 276 841 c 2
 255 741 l 2
 253 731 243 723 233 723 c 2
 176 723 l 2
 166 723 160 731 162 741 c 2
 183 841 l 2
 186 851 195 859 205 859 c 2
394 859 m 2
 451 859 l 2
 461 859 467 851 465 841 c 2
 444 741 l 2
 442 731 432 723 422 723 c 2
 365 723 l 2
 355 723 349 731 351 741 c 2
 372 841 l 2
 375 851 384 859 394 859 c 2
EndSplineSet
EndChar
StartChar: Egrave
Encoding: 233 200 212
Width: 443
Flags: W
Fore
440 626 m 1
 243 626 l 1
 202 431 l 1
 396 431 l 1
 381 361 l 1
 187 361 l 1
 129 89 l 1
 325 89 l 1
 307 1 l 1
 -28 1 l 1
 120 697 l 1
 456 697 l 1
 440 626 l 1
257 846 m 1
 341 864 l 1
 389 737 l 1
 305 719 l 1
 257 846 l 1
EndSplineSet
EndChar
StartChar: Iacute
Encoding: 234 205 213
Width: 258
Flags: W
Fore
140 706 m 1
 277 706 l 1
 127 1 l 1
 -10 1 l 1
 140 706 l 1
322 846 m 1
 246 864 l 1
 143 737 l 1
 219 719 l 1
 322 846 l 1
EndSplineSet
EndChar
StartChar: Icircumflex
Encoding: 235 206 214
Width: 258
Flags: W
Fore
139 706 m 1
 277 706 l 1
 127 1 l 1
 -11 1 l 1
 139 706 l 1
201 833 m 1
 261 833 l 1
 291 722 l 1
 231 722 l 1
 218 772 l 1
 183 722 l 1
 123 722 l 1
 201 833 l 1
EndSplineSet
EndChar
StartChar: Idieresis
Encoding: 236 207 215
Width: 258
Flags: W
Fore
140 706 m 1
 278 706 l 1
 128 1 l 1
 -10 1 l 1
 140 706 l 1
109 868 m 2
 165 868 l 2
 175 868 182 860 179 850 c 2
 158 750 l 2
 156 740 146 732 136 732 c 2
 80 732 l 2
 70 732 63 740 66 750 c 2
 87 850 l 2
 89 860 99 868 109 868 c 2
298 868 m 2
 354 868 l 2
 364 868 371 860 368 850 c 2
 347 750 l 2
 345 740 335 732 325 732 c 2
 269 732 l 2
 259 732 252 740 255 750 c 2
 276 850 l 2
 278 860 288 868 298 868 c 2
EndSplineSet
EndChar
StartChar: Igrave
Encoding: 237 204 216
Width: 258
Flags: W
Fore
140 706 m 1
 277 706 l 1
 127 1 l 1
 -10 1 l 1
 140 706 l 1
167 846 m 1
 250 864 l 1
 299 737 l 1
 215 719 l 1
 167 846 l 1
EndSplineSet
EndChar
StartChar: Oacute
Encoding: 238 211 217
Width: 528
Flags: W
Fore
303 134 m 2
 295 99 267 79 234 79 c 2
 186 79 l 2
 153 79 130 99 138 134 c 2
 229 565 l 2
 237 600 269 628 302 628 c 2
 348 628 l 2
 381 628 402 600 395 565 c 2
 303 134 l 2
449 172 m 2
 524 527 l 2
 545 627 482 707 382 707 c 2
 302 707 l 2
 202 707 105 627 84 527 c 2
 8 172 l 2
 -13 72 50 -8 150 -8 c 2
 231 -8 l 2
 330 -8 427 72 449 172 c 2
412 846 m 1
 336 864 l 1
 233 737 l 1
 310 719 l 1
 412 846 l 1
EndSplineSet
EndChar
StartChar: Ocircumflex
Encoding: 239 212 218
Width: 528
Flags: W
Fore
303 134 m 2
 295 99 267 79 234 79 c 2
 186 79 l 2
 153 79 130 99 138 134 c 2
 229 565 l 2
 237 600 269 628 302 628 c 2
 348 628 l 2
 381 628 402 600 395 565 c 2
 303 134 l 2
449 172 m 2
 524 527 l 2
 545 627 482 707 382 707 c 2
 302 707 l 2
 202 707 105 627 84 527 c 2
 8 172 l 2
 -13 72 50 -8 150 -8 c 2
 231 -8 l 2
 330 -8 427 72 449 172 c 2
EndSplineSet
EndChar
StartChar: Ograve
Encoding: 241 210 219
Width: 528
Flags: W
Fore
303 134 m 2
 295 99 267 79 234 79 c 2
 186 79 l 2
 153 79 130 99 138 134 c 2
 229 565 l 2
 237 600 269 628 302 628 c 2
 348 628 l 2
 381 628 402 600 395 565 c 2
 303 134 l 2
449 172 m 2
 524 527 l 2
 545 627 482 707 382 707 c 2
 302 707 l 2
 202 707 105 627 84 527 c 2
 8 172 l 2
 -13 72 50 -8 150 -8 c 2
 231 -8 l 2
 330 -8 427 72 449 172 c 2
257 846 m 1
 341 864 l 1
 389 737 l 1
 305 719 l 1
 257 846 l 1
EndSplineSet
EndChar
StartChar: Uacute
Encoding: 242 218 220
Width: 528
Flags: W
Fore
9 172 m 2
 -12 72 52 -8 152 -8 c 2
 233 -8 l 2
 332 -8 429 72 450 172 c 2
 562 697 l 1
 424 697 l 1
 305 134 l 2
 298 100 269 79 236 79 c 2
 188 79 l 2
 155 79 132 99 139 134 c 2
 259 697 l 1
 121 697 l 1
 9 172 l 2
413 846 m 1
 336 864 l 1
 234 737 l 1
 310 719 l 1
 413 846 l 1
EndSplineSet
EndChar
StartChar: Ucircumflex
Encoding: 243 219 221
Width: 528
Flags: W
Fore
9 172 m 2
 -12 72 52 -8 152 -8 c 2
 233 -8 l 2
 332 -8 429 72 450 172 c 2
 562 697 l 1
 424 697 l 1
 305 134 l 2
 298 100 269 79 236 79 c 2
 188 79 l 2
 155 79 132 99 139 134 c 2
 259 697 l 1
 121 697 l 1
 9 172 l 2
EndSplineSet
EndChar
StartChar: Ugrave
Encoding: 244 217 222
Width: 528
Flags: W
Fore
9 172 m 2
 -12 72 52 -8 152 -8 c 2
 233 -8 l 2
 332 -8 429 72 450 172 c 2
 562 697 l 1
 424 697 l 1
 305 134 l 2
 298 100 269 79 236 79 c 2
 188 79 l 2
 155 79 132 99 139 134 c 2
 259 697 l 1
 121 697 l 1
 9 172 l 2
EndSplineSet
EndChar
StartChar: dotlessi
Encoding: 245 305 223
Width: 228
Flags: MW
HStem: 1 20
Fore
98 499 m 1
 235 499 l 1
 130 1 l 1
 -8 1 l 1
 98 499 l 1
EndSplineSet
EndChar
StartChar: circumflex
Encoding: 246 710 224
Width: 400
Flags: W
Fore
224 662 m 1
 283 662 l 1
 314 551 l 1
 254 551 l 1
 241 601 l 1
 206 551 l 1
 146 551 l 1
 224 662 l 1
EndSplineSet
EndChar
StartChar: tilde
Encoding: 247 732 225
Width: 500
Flags: W
Fore
153 424 m 1
 168 431 188 450 243 451 c 0
 313 452 323 397 365 397 c 0
 390 397 421 411 449 426 c 1
 428 325 l 1
 405 313 387 296 341 296 c 0
 277 296 265 350 221 350 c 0
 177 350 172 344 131 323 c 1
 153 424 l 1
EndSplineSet
EndChar
StartChar: macron
Encoding: 248 175 226
Width: 500
Flags: MW
HStem: 541 70G<93 422 79 437>
Fore
93 611 m 1
 437 611 l 1
 422 541 l 1
 79 541 l 1
 93 611 l 1
EndSplineSet
EndChar
StartChar: breve
Encoding: 249 728 227
Width: 250
Flags: W
Fore
79 598 m 2
 70 554 98 519 142 519 c 2
 195 519 l 2
 239 519 282 554 291 598 c 2
 294 612 l 1
 233 612 l 1
 227 582 l 2
 224 566 211 558 197 558 c 2
 157 558 l 2
 143 558 133 566 136 581 c 2
 142 611 l 1
 82 611 l 1
 79 598 l 2
EndSplineSet
EndChar
StartChar: dotaccent
Encoding: 250 729 228
Width: 250
Flags: MW
HStem: 548 116<109 219 138 194>
Fore
138 664 m 2
 219 664 l 2
 227 664 232 658 230 650 c 2
 212 563 l 2
 210 555 202 548 194 548 c 2
 113 548 l 2
 105 548 100 555 102 563 c 2
 120 650 l 2
 122 658 130 664 138 664 c 2
EndSplineSet
EndChar
StartChar: ring
Encoding: 251 730 229
Width: 500
Flags: MW
HStem: 508 89G
Fore
337 551 m 0
 327 505 282 469 237 469 c 0
 191 469 162 505 172 551 c 0
 182 596 226 633 272 633 c 0
 317 633 346 596 337 551 c 0
298 552 m 0
 303 577 287 597 263 597 c 0
 238 597 214 577 209 552 c 0
 203 527 219 507 244 507 c 0
 268 507 293 527 298 552 c 0
EndSplineSet
EndChar
StartChar: cedilla
Encoding: 252 184 230
Width: 250
Flags: MW
HStem: -215 136<50 79 60 79>
Fore
57 -48 m 1
 69 -41 82 -36 93 -37 c 2
 106 -37 l 2
 153 -38 184 -75 174 -123 c 2
 163 -170 l 2
 153 -218 107 -256 59 -256 c 2
 33 -257 l 2
 -15 -257 -45 -218 -35 -170 c 2
 -28 -139 l 1
 38 -139 l 1
 27 -188 l 2
 23 -205 35 -214 50 -215 c 2
 60 -215 l 2
 76 -215 90 -205 93 -188 c 2
 112 -105 l 2
 115 -88 106 -78 90 -78 c 2
 79 -79 l 2
 63 -79 47 -88 45 -96 c 1
 -15 -96 l 1
 11 30 l 1
 74 30 l 1
 57 -48 l 1
EndSplineSet
EndChar
StartChar: hungarumlaut
Encoding: 253 733 231
Width: 500
Flags: W
Fore
424 639 m 1
 344 639 l 1
 245 530 l 1
 326 530 l 1
 424 639 l 1
244 639 m 1
 164 639 l 1
 65 530 l 1
 146 530 l 1
 244 639 l 1
EndSplineSet
EndChar
StartChar: caron
Encoding: 255 711 232
Width: 500
Flags: MW
HStem: 550 112G
Fore
256 551 m 1
 316 551 l 1
 393 662 l 1
 334 662 l 1
 299 612 l 1
 285 662 l 1
 226 662 l 1
 256 551 l 1
EndSplineSet
EndChar
